# MagicaVoxel @ Ephtracy

# group
g gglive_dog_main

# material
mtllib gglive_dog_main.mtl
usemtl palette

# normals
vn -1 0 0
vn 1 0 0
vn 0 0 1
vn 0 0 -1
vn 0 -1 0
vn 0 1 0

# texcoords
vt 0.138672 0.5
vt 0.455078 0.5
vt 0.556641 0.5
vt 0.560547 0.5
vt 0.599609 0.5
vt 0.740234 0.5
vt 0.841797 0.5
vt 0.919922 0.5
vt 0.958984 0.5
vt 0.994141 0.5

# verts
v -5.5 8 8.5
v -5.5 8 6.5
v -5.5 9 9.5
v -5.5 9 8.5
v -5.5 12 9.5
v -5.5 12 6.5
v -4.5 9 12.5
v -4.5 9 10.5
v -4.5 11 10.5
v -4.5 11 9.5
v -4.5 12 12.5
v -4.5 12 10.5
v -4.5 12 9.5
v -3.5 6 11.5
v -3.5 6 6.5
v -3.5 9 11.5
v -3.5 9 10.5
v -3.5 11 10.5
v -3.5 11 6.5
v -2.5 5 6.5
v -2.5 5 5.5
v -2.5 5 3.5
v -2.5 5 0.5
v -2.5 5 -1.5
v -2.5 5 -2.5
v -2.5 6 15.5
v -2.5 6 14.5
v -2.5 6 11.5
v -2.5 6 6.5
v -2.5 6 -1.5
v -2.5 6 -2.5
v -2.5 7 15.5
v -2.5 7 14.5
v -2.5 7 5.5
v -2.5 7 3.5
v -2.5 7 0.5
v -2.5 7 -2.5
v -2.5 8 6.5
v -2.5 8 -2.5
v -2.5 9 15.5
v -2.5 9 12.5
v -2.5 9 11.5
v -2.5 12 11.5
v -2.5 12 10.5
v -2.5 12 6.5
v -2.5 13 11.5
v -2.5 13 6.5
v -1.5 4 6.5
v -1.5 4 -2.5
v -1.5 5 6.5
v -1.5 5 5.5
v -1.5 5 3.5
v -1.5 5 0.5
v -1.5 5 -1.5
v -1.5 5 -2.5
v -1.5 9 15.5
v -1.5 9 14.5
v -1.5 9 12.5
v -1.5 10 15.5
v -1.5 10 14.5
v -1.5 10 12.5
v 0.5 11 12.5
v 0.5 11 11.5
v 0.5 12 12.5
v 0.5 12 11.5
v 4.5 8 8.5
v 4.5 8 6.5
v 4.5 9 9.5
v 4.5 9 8.5
v 4.5 11 9.5
v 4.5 11 6.5
v -4.5 8 8.5
v -4.5 8 6.5
v -4.5 9 9.5
v -4.5 9 8.5
v -4.5 11 9.5
v -4.5 11 6.5
v -0.5 11 12.5
v -0.5 11 11.5
v -0.5 12 12.5
v -0.5 12 11.5
v 1.5 4 6.5
v 1.5 4 0.5
v 1.5 4 -1.5
v 1.5 4 -2.5
v 1.5 5 6.5
v 1.5 5 5.5
v 1.5 5 2.5
v 1.5 5 0.5
v 1.5 5 -1.5
v 1.5 5 -2.5
v 1.5 9 15.5
v 1.5 9 14.5
v 1.5 9 12.5
v 1.5 10 15.5
v 1.5 10 14.5
v 1.5 10 12.5
v 2.5 5 6.5
v 2.5 5 5.5
v 2.5 5 2.5
v 2.5 5 0.5
v 2.5 5 -1.5
v 2.5 5 -2.5
v 2.5 6 15.5
v 2.5 6 14.5
v 2.5 6 11.5
v 2.5 6 6.5
v 2.5 6 0.5
v 2.5 6 -1.5
v 2.5 7 15.5
v 2.5 7 14.5
v 2.5 7 5.5
v 2.5 7 2.5
v 2.5 8 6.5
v 2.5 8 -2.5
v 2.5 9 15.5
v 2.5 9 12.5
v 2.5 9 11.5
v 2.5 12 11.5
v 2.5 12 10.5
v 2.5 12 6.5
v 2.5 13 11.5
v 2.5 13 6.5
v 3.5 6 11.5
v 3.5 6 6.5
v 3.5 9 11.5
v 3.5 9 10.5
v 3.5 11 10.5
v 3.5 11 6.5
v 4.5 9 12.5
v 4.5 9 10.5
v 4.5 11 10.5
v 4.5 11 9.5
v 4.5 12 12.5
v 4.5 12 10.5
v 4.5 12 9.5
v 5.5 8 8.5
v 5.5 8 6.5
v 5.5 9 9.5
v 5.5 9 8.5
v 5.5 12 9.5
v 5.5 12 6.5
v -2.5 6 15.5
v -2.5 7 15.5
v -2.5 9 15.5
v -1.5 6 15.5
v -1.5 7 15.5
v -1.5 8 15.5
v -1.5 9 15.5
v -1.5 10 15.5
v -0.5 8 15.5
v -0.5 9 15.5
v 0.5 8 15.5
v 0.5 9 15.5
v 1.5 6 15.5
v 1.5 7 15.5
v 1.5 8 15.5
v 1.5 9 15.5
v 1.5 10 15.5
v 2.5 6 15.5
v 2.5 7 15.5
v 2.5 9 15.5
v -4.5 9 12.5
v -4.5 12 12.5
v -3.5 10 12.5
v -3.5 12 12.5
v -2.5 9 12.5
v -1.5 9 12.5
v -1.5 10 12.5
v -1.5 12 12.5
v -0.5 10 12.5
v -0.5 11 12.5
v -0.5 12 12.5
v 0.5 10 12.5
v 0.5 11 12.5
v 0.5 12 12.5
v 1.5 9 12.5
v 1.5 10 12.5
v 1.5 12 12.5
v 2.5 9 12.5
v 3.5 10 12.5
v 3.5 12 12.5
v 4.5 9 12.5
v 4.5 12 12.5
v -3.5 6 11.5
v -3.5 9 11.5
v -2.5 6 11.5
v -2.5 9 11.5
v -2.5 12 11.5
v -2.5 13 11.5
v -1.5 12 11.5
v -0.5 11 11.5
v -0.5 12 11.5
v 0.5 11 11.5
v 0.5 12 11.5
v 1.5 12 11.5
v 2.5 6 11.5
v 2.5 9 11.5
v 2.5 12 11.5
v 2.5 13 11.5
v 3.5 6 11.5
v 3.5 9 11.5
v -5.5 9 9.5
v -5.5 12 9.5
v -4.5 9 9.5
v -4.5 11 9.5
v -4.5 12 9.5
v 4.5 9 9.5
v 4.5 11 9.5
v 4.5 12 9.5
v 5.5 9 9.5
v 5.5 12 9.5
v -5.5 8 8.5
v -5.5 9 8.5
v -4.5 8 8.5
v -4.5 9 8.5
v 4.5 8 8.5
v 4.5 9 8.5
v 5.5 8 8.5
v 5.5 9 8.5
v -2.5 5 6.5
v -2.5 6 6.5
v -1.5 4 6.5
v -1.5 5 6.5
v 1.5 4 6.5
v 1.5 5 6.5
v 2.5 5 6.5
v 2.5 6 6.5
v -4.5 9 10.5
v -4.5 11 10.5
v -3.5 9 10.5
v -3.5 11 10.5
v 3.5 9 10.5
v 3.5 11 10.5
v 4.5 9 10.5
v 4.5 11 10.5
v -5.5 8 6.5
v -5.5 12 6.5
v -4.5 8 6.5
v -4.5 11 6.5
v -3.5 6 6.5
v -3.5 11 6.5
v -2.5 6 6.5
v -2.5 8 6.5
v -2.5 12 6.5
v -2.5 13 6.5
v 2.5 6 6.5
v 2.5 8 6.5
v 2.5 12 6.5
v 2.5 13 6.5
v 3.5 6 6.5
v 3.5 11 6.5
v 4.5 8 6.5
v 4.5 11 6.5
v 5.5 8 6.5
v 5.5 12 6.5
v -2.5 5 -2.5
v -2.5 6 -2.5
v -2.5 7 -2.5
v -2.5 8 -2.5
v -1.5 4 -2.5
v -1.5 5 -2.5
v -1.5 6 -2.5
v -1.5 7 -2.5
v 1.5 4 -2.5
v 1.5 5 -2.5
v 2.5 5 -2.5
v 2.5 8 -2.5
v -1.5 4 6.5
v 1.5 4 6.5
v 0.5 4 0.5
v 1.5 4 0.5
v 0.5 4 -1.5
v 1.5 4 -1.5
v -1.5 4 -2.5
v 1.5 4 -2.5
v -2.5 5 6.5
v -1.5 5 6.5
v 1.5 5 6.5
v 2.5 5 6.5
v -2.5 5 5.5
v -1.5 5 5.5
v 1.5 5 5.5
v 2.5 5 5.5
v -2.5 5 3.5
v -1.5 5 3.5
v 1.5 5 2.5
v 2.5 5 2.5
v -2.5 5 0.5
v -1.5 5 0.5
v 1.5 5 0.5
v 2.5 5 0.5
v -2.5 5 -1.5
v -1.5 5 -1.5
v 1.5 5 -1.5
v 2.5 5 -1.5
v -2.5 5 -2.5
v -1.5 5 -2.5
v 1.5 5 -2.5
v 2.5 5 -2.5
v -2.5 6 15.5
v -1.5 6 15.5
v 1.5 6 15.5
v 2.5 6 15.5
v -2.5 6 14.5
v -1.5 6 14.5
v 1.5 6 14.5
v 2.5 6 14.5
v -3.5 6 11.5
v -2.5 6 11.5
v 2.5 6 11.5
v 3.5 6 11.5
v -3.5 6 6.5
v -2.5 6 6.5
v 2.5 6 6.5
v 3.5 6 6.5
v -5.5 8 8.5
v -4.5 8 8.5
v 4.5 8 8.5
v 5.5 8 8.5
v -5.5 8 6.5
v -4.5 8 6.5
v 4.5 8 6.5
v 5.5 8 6.5
v -4.5 9 12.5
v -2.5 9 12.5
v 2.5 9 12.5
v 4.5 9 12.5
v -3.5 9 11.5
v -2.5 9 11.5
v 2.5 9 11.5
v 3.5 9 11.5
v -4.5 9 10.5
v -3.5 9 10.5
v 3.5 9 10.5
v 4.5 9 10.5
v -5.5 9 9.5
v -4.5 9 9.5
v 4.5 9 9.5
v 5.5 9 9.5
v -5.5 9 8.5
v -4.5 9 8.5
v 4.5 9 8.5
v 5.5 9 8.5
v -4.5 11 10.5
v -3.5 11 10.5
v 3.5 11 10.5
v 4.5 11 10.5
v -4.5 11 9.5
v 4.5 11 9.5
v -4.5 11 6.5
v -3.5 11 6.5
v 3.5 11 6.5
v 4.5 11 6.5
v -2.5 8 6.5
v 2.5 8 6.5
v -1.5 8 2.5
v 1.5 8 2.5
v -1.5 8 -0.5
v 1.5 8 -0.5
v -2.5 8 -2.5
v 2.5 8 -2.5
v -2.5 9 15.5
v -1.5 9 15.5
v 1.5 9 15.5
v 2.5 9 15.5
v -1.5 9 14.5
v 1.5 9 14.5
v -2.5 9 12.5
v -1.5 9 12.5
v 1.5 9 12.5
v 2.5 9 12.5
v -1.5 10 15.5
v 1.5 10 15.5
v -1.5 10 14.5
v 1.5 10 14.5
v -1.5 10 12.5
v -0.5 10 12.5
v 0.5 10 12.5
v 1.5 10 12.5
v -0.5 11 12.5
v 0.5 11 12.5
v -0.5 11 11.5
v 0.5 11 11.5
v -4.5 12 12.5
v -3.5 12 12.5
v -1.5 12 12.5
v -0.5 12 12.5
v 0.5 12 12.5
v 1.5 12 12.5
v 3.5 12 12.5
v 4.5 12 12.5
v -3.5 12 11.5
v -2.5 12 11.5
v -1.5 12 11.5
v -0.5 12 11.5
v 0.5 12 11.5
v 1.5 12 11.5
v 2.5 12 11.5
v 3.5 12 11.5
v -4.5 12 10.5
v -2.5 12 10.5
v 2.5 12 10.5
v 4.5 12 10.5
v -5.5 12 9.5
v -4.5 12 9.5
v 4.5 12 9.5
v 5.5 12 9.5
v -5.5 12 6.5
v -2.5 12 6.5
v 2.5 12 6.5
v 5.5 12 6.5
v -2.5 13 11.5
v 2.5 13 11.5
v -2.5 13 6.5
v 2.5 13 6.5

# faces
f 4/2/1 2/2/1 1/2/1
f 5/2/1 4/2/1 3/2/1
f 6/2/1 2/2/1 4/2/1
f 6/2/1 4/2/1 5/2/1
f 9/9/1 8/9/1 7/9/1
f 11/9/1 9/9/1 7/9/1
f 12/2/1 10/2/1 9/2/1
f 12/9/1 9/9/1 11/9/1
f 13/2/1 10/2/1 12/2/1
f 16/2/1 15/2/1 14/2/1
f 17/2/1 15/2/1 16/2/1
f 18/2/1 15/2/1 17/2/1
f 19/2/1 15/2/1 18/2/1
f 29/2/1 21/2/1 20/2/1
f 30/4/1 24/4/1 23/4/1
f 30/2/1 25/2/1 24/2/1
f 31/2/1 25/2/1 30/2/1
f 32/3/1 27/3/1 26/3/1
f 33/2/1 28/2/1 27/2/1
f 33/3/1 27/3/1 32/3/1
f 34/4/1 22/4/1 21/4/1
f 34/2/1 21/2/1 29/2/1
f 35/2/1 23/2/1 22/2/1
f 35/4/1 22/4/1 34/4/1
f 36/4/1 30/4/1 23/4/1
f 36/2/1 23/2/1 35/2/1
f 36/4/1 31/4/1 30/4/1
f 37/4/1 31/4/1 36/4/1
f 38/2/1 34/2/1 29/2/1
f 38/2/1 35/2/1 34/2/1
f 38/2/1 37/2/1 36/2/1
f 38/2/1 36/2/1 35/2/1
f 39/2/1 37/2/1 38/2/1
f 40/2/1 33/2/1 32/2/1
f 41/2/1 28/2/1 33/2/1
f 41/2/1 33/2/1 40/2/1
f 42/2/1 28/2/1 41/2/1
f 46/2/1 44/2/1 43/2/1
f 46/2/1 45/2/1 44/2/1
f 47/2/1 45/2/1 46/2/1
f 50/2/1 49/2/1 48/2/1
f 51/2/1 49/2/1 50/2/1
f 52/2/1 49/2/1 51/2/1
f 53/2/1 49/2/1 52/2/1
f 54/2/1 49/2/1 53/2/1
f 55/2/1 49/2/1 54/2/1
f 59/3/1 57/3/1 56/3/1
f 60/2/1 58/2/1 57/2/1
f 60/3/1 57/3/1 59/3/1
f 61/2/1 58/2/1 60/2/1
f 64/9/1 63/9/1 62/9/1
f 65/9/1 63/9/1 64/9/1
f 69/2/1 67/2/1 66/2/1
f 70/2/1 69/2/1 68/2/1
f 71/2/1 67/2/1 69/2/1
f 71/2/1 69/2/1 70/2/1
f 72/2/2 73/2/2 75/2/2
f 74/2/2 75/2/2 76/2/2
f 75/2/2 73/2/2 77/2/2
f 76/2/2 75/2/2 77/2/2
f 78/9/2 79/9/2 80/9/2
f 80/9/2 79/9/2 81/9/2
f 82/2/2 83/2/2 86/2/2
f 86/2/2 83/2/2 87/2/2
f 87/2/2 83/2/2 88/2/2
f 83/4/2 84/4/2 89/4/2
f 88/2/2 83/2/2 89/2/2
f 84/2/2 85/2/2 90/2/2
f 89/4/2 84/4/2 90/4/2
f 90/2/2 85/2/2 91/2/2
f 92/3/2 93/3/2 95/3/2
f 93/2/2 94/2/2 96/2/2
f 95/3/2 93/3/2 96/3/2
f 96/2/2 94/2/2 97/2/2
f 98/2/2 99/2/2 107/2/2
f 100/2/2 101/2/2 108/2/2
f 101/4/2 102/4/2 108/4/2
f 102/2/2 103/2/2 109/2/2
f 108/4/2 102/4/2 109/4/2
f 104/3/2 105/3/2 110/3/2
f 105/2/2 106/2/2 111/2/2
f 110/3/2 105/3/2 111/3/2
f 99/4/2 100/4/2 112/4/2
f 107/2/2 99/2/2 112/2/2
f 100/2/2 108/2/2 113/2/2
f 112/4/2 100/4/2 113/4/2
f 108/2/2 109/2/2 113/2/2
f 107/2/2 112/2/2 114/2/2
f 112/2/2 113/2/2 114/2/2
f 113/2/2 109/2/2 115/2/2
f 114/2/2 113/2/2 115/2/2
f 109/2/2 103/2/2 115/2/2
f 110/2/2 111/2/2 116/2/2
f 111/2/2 106/2/2 117/2/2
f 116/2/2 111/2/2 117/2/2
f 117/2/2 106/2/2 118/2/2
f 119/2/2 120/2/2 122/2/2
f 120/2/2 121/2/2 122/2/2
f 122/2/2 121/2/2 123/2/2
f 124/2/2 125/2/2 126/2/2
f 126/2/2 125/2/2 127/2/2
f 127/2/2 125/2/2 128/2/2
f 128/2/2 125/2/2 129/2/2
f 130/9/2 131/9/2 132/9/2
f 130/9/2 132/9/2 134/9/2
f 132/2/2 133/2/2 135/2/2
f 134/9/2 132/9/2 135/9/2
f 135/2/2 133/2/2 136/2/2
f 137/2/2 138/2/2 140/2/2
f 139/2/2 140/2/2 141/2/2
f 140/2/2 138/2/2 142/2/2
f 141/2/2 140/2/2 142/2/2
f 146/3/3 144/3/3 143/3/3
f 147/2/3 145/2/3 144/2/3
f 147/3/3 144/3/3 146/3/3
f 148/2/3 145/2/3 147/2/3
f 149/2/3 145/2/3 148/2/3
f 151/3/3 148/3/3 147/3/3
f 151/2/3 149/2/3 148/2/3
f 152/3/3 150/3/3 149/3/3
f 152/2/3 149/2/3 151/2/3
f 153/3/3 151/3/3 147/3/3
f 153/3/3 152/3/3 151/3/3
f 154/3/3 150/3/3 152/3/3
f 154/3/3 152/3/3 153/3/3
f 155/2/3 147/2/3 146/2/3
f 156/3/3 153/3/3 147/3/3
f 156/2/3 147/2/3 155/2/3
f 157/2/3 154/2/3 153/2/3
f 157/3/3 153/3/3 156/3/3
f 158/3/3 150/3/3 154/3/3
f 158/2/3 154/2/3 157/2/3
f 159/3/3 150/3/3 158/3/3
f 160/3/3 156/3/3 155/3/3
f 161/2/3 157/2/3 156/2/3
f 161/3/3 156/3/3 160/3/3
f 161/2/3 158/2/3 157/2/3
f 162/2/3 158/2/3 161/2/3
f 165/9/3 164/9/3 163/9/3
f 166/9/3 164/9/3 165/9/3
f 167/9/3 165/9/3 163/9/3
f 168/9/3 165/9/3 167/9/3
f 169/10/3 166/10/3 165/10/3
f 169/9/3 165/9/3 168/9/3
f 170/10/3 166/10/3 169/10/3
f 171/9/3 170/9/3 169/9/3
f 172/9/3 170/9/3 171/9/3
f 173/9/3 170/9/3 172/9/3
f 174/2/3 172/2/3 171/2/3
f 175/2/3 172/2/3 174/2/3
f 178/9/3 175/9/3 174/9/3
f 178/9/3 176/9/3 175/9/3
f 179/9/3 176/9/3 178/9/3
f 180/9/3 178/9/3 177/9/3
f 181/10/3 179/10/3 178/10/3
f 181/9/3 178/9/3 180/9/3
f 182/10/3 179/10/3 181/10/3
f 183/9/3 181/9/3 180/9/3
f 183/9/3 182/9/3 181/9/3
f 184/9/3 182/9/3 183/9/3
f 187/2/3 186/2/3 185/2/3
f 188/2/3 186/2/3 187/2/3
f 191/2/3 190/2/3 189/2/3
f 193/2/3 190/2/3 191/2/3
f 194/2/3 193/2/3 192/2/3
f 195/2/3 190/2/3 193/2/3
f 195/2/3 193/2/3 194/2/3
f 196/2/3 190/2/3 195/2/3
f 199/2/3 190/2/3 196/2/3
f 200/2/3 190/2/3 199/2/3
f 201/2/3 198/2/3 197/2/3
f 202/2/3 198/2/3 201/2/3
f 205/2/3 204/2/3 203/2/3
f 206/2/3 204/2/3 205/2/3
f 207/2/3 204/2/3 206/2/3
f 211/2/3 209/2/3 208/2/3
f 211/2/3 210/2/3 209/2/3
f 212/2/3 210/2/3 211/2/3
f 215/2/3 214/2/3 213/2/3
f 216/2/3 214/2/3 215/2/3
f 219/2/3 218/2/3 217/2/3
f 220/2/3 218/2/3 219/2/3
f 224/2/3 222/2/3 221/2/3
f 225/2/3 224/2/3 223/2/3
f 226/2/3 222/2/3 224/2/3
f 226/2/3 224/2/3 225/2/3
f 227/2/3 222/2/3 226/2/3
f 228/2/3 222/2/3 227/2/3
f 229/9/4 230/9/4 231/9/4
f 231/9/4 230/9/4 232/9/4
f 233/9/4 234/9/4 235/9/4
f 235/9/4 234/9/4 236/9/4
f 237/2/4 238/2/4 239/2/4
f 239/2/4 238/2/4 240/2/4
f 240/2/4 238/2/4 242/2/4
f 241/2/4 242/2/4 243/2/4
f 243/2/4 242/2/4 244/2/4
f 242/2/4 238/2/4 245/2/4
f 244/2/4 242/2/4 245/2/4
f 245/2/4 246/2/4 248/2/4
f 244/2/4 245/2/4 248/2/4
f 248/2/4 246/2/4 249/2/4
f 249/2/4 246/2/4 250/2/4
f 247/2/4 248/2/4 251/2/4
f 248/2/4 249/2/4 251/2/4
f 251/2/4 249/2/4 252/2/4
f 252/2/4 249/2/4 254/2/4
f 253/2/4 254/2/4 255/2/4
f 254/2/4 249/2/4 256/2/4
f 255/2/4 254/2/4 256/2/4
f 257/2/4 258/2/4 262/2/4
f 258/4/4 259/4/4 263/4/4
f 262/2/4 258/2/4 263/2/4
f 259/2/4 260/2/4 264/2/4
f 263/4/4 259/4/4 264/4/4
f 262/2/4 263/2/4 265/2/4
f 261/2/4 262/2/4 265/2/4
f 263/2/4 264/2/4 265/2/4
f 265/2/4 264/2/4 266/2/4
f 266/2/4 264/2/4 267/2/4
f 264/2/4 260/2/4 268/2/4
f 267/2/4 264/2/4 268/2/4
f 271/2/5 270/2/5 269/2/5
f 272/2/5 270/2/5 271/2/5
f 273/2/5 271/2/5 269/2/5
f 273/4/5 272/4/5 271/4/5
f 274/4/5 272/4/5 273/4/5
f 275/2/5 273/2/5 269/2/5
f 275/2/5 274/2/5 273/2/5
f 276/2/5 274/2/5 275/2/5
f 281/2/5 278/2/5 277/2/5
f 282/2/5 278/2/5 281/2/5
f 283/2/5 280/2/5 279/2/5
f 284/2/5 280/2/5 283/2/5
f 285/4/5 282/4/5 281/4/5
f 286/4/5 282/4/5 285/4/5
f 287/4/5 284/4/5 283/4/5
f 288/4/5 284/4/5 287/4/5
f 289/2/5 286/2/5 285/2/5
f 290/2/5 286/2/5 289/2/5
f 291/2/5 288/2/5 287/2/5
f 292/2/5 288/2/5 291/2/5
f 293/4/5 290/4/5 289/4/5
f 294/4/5 290/4/5 293/4/5
f 295/4/5 292/4/5 291/4/5
f 296/4/5 292/4/5 295/4/5
f 297/2/5 294/2/5 293/2/5
f 298/2/5 294/2/5 297/2/5
f 299/2/5 296/2/5 295/2/5
f 300/2/5 296/2/5 299/2/5
f 305/3/5 302/3/5 301/3/5
f 306/2/5 303/2/5 302/2/5
f 306/3/5 302/3/5 305/3/5
f 307/3/5 304/3/5 303/3/5
f 307/2/5 303/2/5 306/2/5
f 308/3/5 304/3/5 307/3/5
f 310/2/5 306/2/5 305/2/5
f 310/2/5 307/2/5 306/2/5
f 310/2/5 308/2/5 307/2/5
f 311/2/5 308/2/5 310/2/5
f 313/2/5 311/2/5 310/2/5
f 313/2/5 312/2/5 311/2/5
f 313/2/5 310/2/5 309/2/5
f 314/2/5 312/2/5 313/2/5
f 315/2/5 312/2/5 314/2/5
f 316/2/5 312/2/5 315/2/5
f 321/2/5 318/2/5 317/2/5
f 322/2/5 318/2/5 321/2/5
f 323/2/5 320/2/5 319/2/5
f 324/2/5 320/2/5 323/2/5
f 329/9/5 326/9/5 325/9/5
f 330/9/5 326/9/5 329/9/5
f 331/9/5 328/9/5 327/9/5
f 332/9/5 328/9/5 331/9/5
f 333/9/5 329/9/5 325/9/5
f 334/9/5 329/9/5 333/9/5
f 335/9/5 328/9/5 332/9/5
f 336/9/5 328/9/5 335/9/5
f 341/2/5 338/2/5 337/2/5
f 342/2/5 338/2/5 341/2/5
f 343/2/5 340/2/5 339/2/5
f 344/2/5 340/2/5 343/2/5
f 349/2/5 346/2/5 345/2/5
f 350/2/5 348/2/5 347/2/5
f 351/2/5 346/2/5 349/2/5
f 352/2/5 346/2/5 351/2/5
f 353/2/5 350/2/5 347/2/5
f 354/2/5 350/2/5 353/2/5
f 355/2/6 356/2/6 357/2/6
f 357/2/6 356/2/6 358/2/6
f 355/2/6 357/2/6 359/2/6
f 357/4/6 358/4/6 359/4/6
f 358/2/6 356/2/6 360/2/6
f 359/4/6 358/4/6 360/4/6
f 355/2/6 359/2/6 361/2/6
f 359/2/6 360/2/6 361/2/6
f 360/2/6 356/2/6 362/2/6
f 361/2/6 360/2/6 362/2/6
f 363/2/6 364/2/6 367/2/6
f 365/2/6 366/2/6 368/2/6
f 363/2/6 367/2/6 369/2/6
f 369/2/6 367/2/6 370/2/6
f 368/2/6 366/2/6 371/2/6
f 371/2/6 366/2/6 372/2/6
f 373/3/6 374/3/6 375/3/6
f 375/3/6 374/3/6 376/3/6
f 375/2/6 376/2/6 377/2/6
f 377/2/6 376/2/6 378/2/6
f 378/2/6 376/2/6 379/2/6
f 379/2/6 376/2/6 380/2/6
f 381/2/6 382/2/6 383/2/6
f 383/2/6 382/2/6 384/2/6
f 385/9/6 386/9/6 393/9/6
f 386/10/6 387/10/6 393/10/6
f 393/10/6 387/10/6 394/10/6
f 387/9/6 388/9/6 395/9/6
f 394/10/6 387/10/6 395/10/6
f 395/9/6 388/9/6 396/9/6
f 389/9/6 390/9/6 397/9/6
f 390/10/6 391/10/6 398/10/6
f 397/9/6 390/9/6 398/9/6
f 398/10/6 391/10/6 399/10/6
f 391/9/6 392/9/6 400/9/6
f 399/10/6 391/10/6 400/10/6
f 393/9/6 394/9/6 401/9/6
f 385/9/6 393/9/6 401/9/6
f 401/9/6 394/9/6 402/9/6
f 399/9/6 400/9/6 403/9/6
f 400/9/6 392/9/6 404/9/6
f 403/9/6 400/9/6 404/9/6
f 401/2/6 402/2/6 406/2/6
f 403/2/6 404/2/6 407/2/6
f 405/2/6 406/2/6 409/2/6
f 406/2/6 402/2/6 410/2/6
f 409/2/6 406/2/6 410/2/6
f 403/2/6 407/2/6 411/2/6
f 407/2/6 408/2/6 411/2/6
f 411/2/6 408/2/6 412/2/6
f 413/2/6 414/2/6 415/2/6
f 415/2/6 414/2/6 416/2/6
