# MagicaVoxel @ Ephtracy

# group
g gglive_main_body

# material
mtllib gglive_main_body.mtl
usemtl palette

# normals
vn -1 0 0
vn 1 0 0
vn 0 0 1
vn 0 0 -1
vn 0 -1 0
vn 0 1 0

# texcoords
vt 0.0449219 0.5
vt 0.236328 0.5
vt 0.408203 0.5
vt 0.748047 0.5
vt 0.994141 0.5

# verts
v -3.5 15 1.5
v -3.5 15 -3.5
v -3.5 16 1.5
v -3.5 16 -3.5
v -2.5 7 0.5
v -2.5 7 -2.5
v -2.5 9 0.5
v -2.5 9 -2.5
v -2.5 14 1.5
v -2.5 14 0.5
v -2.5 14 -2.5
v -2.5 14 -4.5
v -2.5 15 1.5
v -2.5 15 -3.5
v -2.5 15 -4.5
v -1.5 12 -2.5
v -1.5 12 -3.5
v -1.5 13 1.5
v -1.5 13 0.5
v -1.5 14 1.5
v -1.5 14 0.5
v -1.5 14 -2.5
v -1.5 14 -3.5
v -0.5 11 -2.5
v -0.5 11 -3.5
v -0.5 12 -2.5
v -0.5 12 -3.5
v 0.5 13 1.5
v 0.5 13 0.5
v 0.5 14 0.5
v 0.5 16 1.5
v 0.5 16 0.5
v -0.5 13 1.5
v -0.5 13 0.5
v -0.5 14 0.5
v -0.5 16 1.5
v -0.5 16 0.5
v 0.5 11 -2.5
v 0.5 11 -3.5
v 0.5 12 -2.5
v 0.5 12 -3.5
v 1.5 12 -2.5
v 1.5 12 -3.5
v 1.5 13 1.5
v 1.5 13 0.5
v 1.5 14 1.5
v 1.5 14 0.5
v 1.5 14 -2.5
v 1.5 14 -3.5
v 2.5 7 0.5
v 2.5 7 -2.5
v 2.5 9 0.5
v 2.5 9 -2.5
v 2.5 14 1.5
v 2.5 14 0.5
v 2.5 14 -2.5
v 2.5 14 -4.5
v 2.5 15 1.5
v 2.5 15 -3.5
v 2.5 15 -4.5
v 3.5 15 1.5
v 3.5 15 -3.5
v 3.5 16 1.5
v 3.5 16 -3.5
v -3.5 15 1.5
v -3.5 16 1.5
v -2.5 14 1.5
v -2.5 15 1.5
v -1.5 13 1.5
v -1.5 14 1.5
v -0.5 13 1.5
v -0.5 16 1.5
v 0.5 13 1.5
v 0.5 16 1.5
v 1.5 13 1.5
v 1.5 14 1.5
v 2.5 14 1.5
v 2.5 15 1.5
v 3.5 15 1.5
v 3.5 16 1.5
v -2.5 7 0.5
v -2.5 9 0.5
v -2.5 14 0.5
v -1.5 13 0.5
v -1.5 14 0.5
v -0.5 9 0.5
v -0.5 13 0.5
v -0.5 14 0.5
v -0.5 16 0.5
v 0.5 9 0.5
v 0.5 13 0.5
v 0.5 14 0.5
v 0.5 16 0.5
v 1.5 13 0.5
v 1.5 14 0.5
v 2.5 7 0.5
v 2.5 9 0.5
v 2.5 14 0.5
v -2.5 7 -2.5
v -2.5 9 -2.5
v -2.5 14 -2.5
v -1.5 12 -2.5
v -1.5 14 -2.5
v -0.5 11 -2.5
v -0.5 12 -2.5
v 0.5 11 -2.5
v 0.5 12 -2.5
v 1.5 12 -2.5
v 1.5 14 -2.5
v 2.5 7 -2.5
v 2.5 9 -2.5
v 2.5 14 -2.5
v -3.5 15 -3.5
v -3.5 16 -3.5
v -2.5 15 -3.5
v -1.5 12 -3.5
v -1.5 14 -3.5
v -0.5 11 -3.5
v -0.5 12 -3.5
v 0.5 11 -3.5
v 0.5 12 -3.5
v 1.5 12 -3.5
v 1.5 14 -3.5
v 2.5 15 -3.5
v 3.5 15 -3.5
v 3.5 16 -3.5
v -2.5 14 -4.5
v -2.5 15 -4.5
v 2.5 14 -4.5
v 2.5 15 -4.5
v -2.5 7 0.5
v 2.5 7 0.5
v -2.5 7 -2.5
v 2.5 7 -2.5
v -0.5 11 -2.5
v 0.5 11 -2.5
v -0.5 11 -3.5
v 0.5 11 -3.5
v -1.5 12 -2.5
v -0.5 12 -2.5
v 0.5 12 -2.5
v 1.5 12 -2.5
v -1.5 12 -3.5
v -0.5 12 -3.5
v 0.5 12 -3.5
v 1.5 12 -3.5
v -1.5 13 1.5
v -0.5 13 1.5
v 0.5 13 1.5
v 1.5 13 1.5
v -1.5 13 0.5
v -0.5 13 0.5
v 0.5 13 0.5
v 1.5 13 0.5
v -2.5 14 1.5
v -1.5 14 1.5
v 1.5 14 1.5
v 2.5 14 1.5
v -2.5 14 0.5
v -1.5 14 0.5
v 1.5 14 0.5
v 2.5 14 0.5
v -2.5 14 -2.5
v -1.5 14 -2.5
v 1.5 14 -2.5
v 2.5 14 -2.5
v -1.5 14 -3.5
v 1.5 14 -3.5
v -2.5 14 -4.5
v 2.5 14 -4.5
v -3.5 15 1.5
v -2.5 15 1.5
v 2.5 15 1.5
v 3.5 15 1.5
v -3.5 15 -3.5
v -2.5 15 -3.5
v 2.5 15 -3.5
v 3.5 15 -3.5
v -2.5 15 -3.5
v 2.5 15 -3.5
v -2.5 15 -4.5
v 2.5 15 -4.5
v -3.5 16 1.5
v -0.5 16 1.5
v 0.5 16 1.5
v 3.5 16 1.5
v -1.5 16 0.5
v -0.5 16 0.5
v 0.5 16 0.5
v 1.5 16 0.5
v -1.5 16 -2.5
v 1.5 16 -2.5
v -3.5 16 -3.5
v 3.5 16 -3.5

# faces
f 3/4/1 2/4/1 1/4/1
f 4/4/1 2/4/1 3/4/1
f 7/5/1 6/5/1 5/5/1
f 8/5/1 6/5/1 7/5/1
f 10/4/1 8/4/1 7/4/1
f 11/4/1 8/4/1 10/4/1
f 13/4/1 11/4/1 10/4/1
f 13/4/1 12/4/1 11/4/1
f 13/4/1 10/4/1 9/4/1
f 14/4/1 12/4/1 13/4/1
f 15/4/1 12/4/1 14/4/1
f 20/4/1 19/4/1 18/4/1
f 21/4/1 19/4/1 20/4/1
f 22/4/1 17/4/1 16/4/1
f 23/4/1 17/4/1 22/4/1
f 26/4/1 25/4/1 24/4/1
f 27/4/1 25/4/1 26/4/1
f 30/4/1 29/4/1 28/4/1
f 31/4/1 30/4/1 28/4/1
f 32/4/1 30/4/1 31/4/1
f 33/4/2 34/4/2 35/4/2
f 33/4/2 35/4/2 36/4/2
f 36/4/2 35/4/2 37/4/2
f 38/4/2 39/4/2 40/4/2
f 40/4/2 39/4/2 41/4/2
f 44/4/2 45/4/2 46/4/2
f 46/4/2 45/4/2 47/4/2
f 42/4/2 43/4/2 48/4/2
f 48/4/2 43/4/2 49/4/2
f 50/5/2 51/5/2 52/5/2
f 52/5/2 51/5/2 53/5/2
f 52/4/2 53/4/2 55/4/2
f 55/4/2 53/4/2 56/4/2
f 55/4/2 56/4/2 58/4/2
f 56/4/2 57/4/2 58/4/2
f 54/4/2 55/4/2 58/4/2
f 58/4/2 57/4/2 59/4/2
f 59/4/2 57/4/2 60/4/2
f 61/4/2 62/4/2 63/4/2
f 63/4/2 62/4/2 64/4/2
f 68/4/3 66/4/3 65/4/3
f 70/4/3 68/4/3 67/4/3
f 71/4/3 70/4/3 69/4/3
f 72/4/3 66/4/3 68/4/3
f 72/4/3 70/4/3 71/4/3
f 72/4/3 68/4/3 70/4/3
f 75/4/3 74/4/3 73/4/3
f 76/4/3 74/4/3 75/4/3
f 77/4/3 74/4/3 76/4/3
f 78/4/3 74/4/3 77/4/3
f 79/4/3 74/4/3 78/4/3
f 80/4/3 74/4/3 79/4/3
f 84/4/3 83/4/3 82/4/3
f 85/4/3 83/4/3 84/4/3
f 86/5/3 82/5/3 81/5/3
f 86/4/3 84/4/3 82/4/3
f 87/4/3 84/4/3 86/4/3
f 90/2/3 88/2/3 87/2/3
f 90/5/3 86/5/3 81/5/3
f 90/2/3 87/2/3 86/2/3
f 91/2/3 88/2/3 90/2/3
f 92/1/3 89/1/3 88/1/3
f 92/2/3 88/2/3 91/2/3
f 93/1/3 89/1/3 92/1/3
f 94/4/3 91/4/3 90/4/3
f 96/5/3 90/5/3 81/5/3
f 97/4/3 95/4/3 94/4/3
f 97/5/3 90/5/3 96/5/3
f 97/4/3 94/4/3 90/4/3
f 98/4/3 95/4/3 97/4/3
f 100/4/4 101/4/4 102/4/4
f 102/4/4 101/4/4 103/4/4
f 100/4/4 102/4/4 104/4/4
f 104/4/4 102/4/4 105/4/4
f 100/4/4 104/4/4 106/4/4
f 106/4/4 107/4/4 108/4/4
f 99/5/4 100/5/4 110/5/4
f 108/4/4 109/4/4 111/4/4
f 110/5/4 100/5/4 111/5/4
f 106/4/4 108/4/4 111/4/4
f 100/4/4 106/4/4 111/4/4
f 111/4/4 109/4/4 112/4/4
f 113/4/4 114/4/4 115/4/4
f 116/4/4 117/4/4 119/4/4
f 118/4/4 119/4/4 120/4/4
f 119/4/4 117/4/4 121/4/4
f 120/4/4 119/4/4 121/4/4
f 121/4/4 117/4/4 122/4/4
f 122/4/4 117/4/4 123/4/4
f 115/4/4 114/4/4 124/4/4
f 124/4/4 114/4/4 125/4/4
f 125/4/4 114/4/4 126/4/4
f 127/4/4 128/4/4 129/4/4
f 129/4/4 128/4/4 130/4/4
f 133/5/5 132/5/5 131/5/5
f 134/5/5 132/5/5 133/5/5
f 137/4/5 136/4/5 135/4/5
f 138/4/5 136/4/5 137/4/5
f 143/4/5 140/4/5 139/4/5
f 144/4/5 140/4/5 143/4/5
f 145/4/5 142/4/5 141/4/5
f 146/4/5 142/4/5 145/4/5
f 151/4/5 148/4/5 147/4/5
f 152/4/5 148/4/5 151/4/5
f 153/4/5 150/4/5 149/4/5
f 154/4/5 150/4/5 153/4/5
f 159/4/5 156/4/5 155/4/5
f 160/4/5 156/4/5 159/4/5
f 161/4/5 158/4/5 157/4/5
f 162/4/5 158/4/5 161/4/5
f 167/4/5 164/4/5 163/4/5
f 168/4/5 166/4/5 165/4/5
f 169/4/5 167/4/5 163/4/5
f 169/4/5 168/4/5 167/4/5
f 170/4/5 166/4/5 168/4/5
f 170/4/5 168/4/5 169/4/5
f 175/4/5 172/4/5 171/4/5
f 176/4/5 172/4/5 175/4/5
f 177/4/5 174/4/5 173/4/5
f 178/4/5 174/4/5 177/4/5
f 179/4/6 180/4/6 181/4/6
f 181/4/6 180/4/6 182/4/6
f 183/4/6 184/4/6 187/4/6
f 187/4/6 184/4/6 188/4/6
f 185/4/6 186/4/6 189/4/6
f 189/4/6 186/4/6 190/4/6
f 187/1/6 188/1/6 191/1/6
f 183/4/6 187/4/6 191/4/6
f 189/1/6 190/1/6 191/1/6
f 188/1/6 189/1/6 191/1/6
f 190/4/6 186/4/6 192/4/6
f 191/1/6 190/1/6 192/1/6
f 183/4/6 191/4/6 193/4/6
f 191/4/6 192/4/6 193/4/6
f 192/4/6 186/4/6 194/4/6
f 193/4/6 192/4/6 194/4/6
