# MagicaVoxel @ Ephtracy

# group
g gglive_baby_wheel

# material
mtllib gglive_baby_wheel.mtl
usemtl palette

# normals
vn -1 0 0
vn 1 0 0
vn 0 0 1
vn 0 0 -1
vn 0 -1 0
vn 0 1 0

# texcoords
vt 0.982422 0.5
vt 0.986328 0.5

# verts
v -6.5 0 7.5
v -6.5 0 4.5
v -6.5 1 8.5
v -6.5 1 7.5
v -6.5 1 4.5
v -6.5 1 3.5
v -6.5 2 6.5
v -6.5 2 5.5
v -6.5 3 6.5
v -6.5 3 5.5
v -6.5 4 8.5
v -6.5 4 7.5
v -6.5 4 4.5
v -6.5 4 3.5
v -6.5 5 7.5
v -6.5 5 4.5
v -4.5 0 7.5
v -4.5 0 4.5
v -4.5 1 8.5
v -4.5 1 7.5
v -4.5 1 4.5
v -4.5 1 3.5
v -4.5 2 6.5
v -4.5 2 5.5
v -4.5 3 6.5
v -4.5 3 5.5
v -4.5 4 8.5
v -4.5 4 7.5
v -4.5 4 4.5
v -4.5 4 3.5
v -4.5 5 7.5
v -4.5 5 4.5
v -5.5 0 7.5
v -5.5 0 4.5
v -5.5 1 8.5
v -5.5 1 7.5
v -5.5 1 4.5
v -5.5 1 3.5
v -5.5 2 6.5
v -5.5 2 5.5
v -5.5 3 6.5
v -5.5 3 5.5
v -5.5 4 8.5
v -5.5 4 7.5
v -5.5 4 4.5
v -5.5 4 3.5
v -5.5 5 7.5
v -5.5 5 4.5
v -3.5 0 7.5
v -3.5 0 4.5
v -3.5 1 8.5
v -3.5 1 7.5
v -3.5 1 4.5
v -3.5 1 3.5
v -3.5 2 6.5
v -3.5 2 5.5
v -3.5 3 6.5
v -3.5 3 5.5
v -3.5 4 8.5
v -3.5 4 7.5
v -3.5 4 4.5
v -3.5 4 3.5
v -3.5 5 7.5
v -3.5 5 4.5
v -6.5 1 8.5
v -6.5 4 8.5
v -5.5 1 8.5
v -5.5 4 8.5
v -4.5 1 8.5
v -4.5 4 8.5
v -3.5 1 8.5
v -3.5 4 8.5
v -6.5 0 7.5
v -6.5 1 7.5
v -6.5 4 7.5
v -6.5 5 7.5
v -5.5 0 7.5
v -5.5 1 7.5
v -5.5 4 7.5
v -5.5 5 7.5
v -4.5 0 7.5
v -4.5 1 7.5
v -4.5 4 7.5
v -4.5 5 7.5
v -3.5 0 7.5
v -3.5 1 7.5
v -3.5 4 7.5
v -3.5 5 7.5
v -6.5 2 5.5
v -6.5 3 5.5
v -5.5 2 5.5
v -5.5 3 5.5
v -4.5 2 5.5
v -4.5 3 5.5
v -3.5 2 5.5
v -3.5 3 5.5
v -6.5 2 6.5
v -6.5 3 6.5
v -5.5 2 6.5
v -5.5 3 6.5
v -4.5 2 6.5
v -4.5 3 6.5
v -3.5 2 6.5
v -3.5 3 6.5
v -6.5 0 4.5
v -6.5 1 4.5
v -6.5 4 4.5
v -6.5 5 4.5
v -5.5 0 4.5
v -5.5 1 4.5
v -5.5 4 4.5
v -5.5 5 4.5
v -4.5 0 4.5
v -4.5 1 4.5
v -4.5 4 4.5
v -4.5 5 4.5
v -3.5 0 4.5
v -3.5 1 4.5
v -3.5 4 4.5
v -3.5 5 4.5
v -6.5 1 3.5
v -6.5 4 3.5
v -5.5 1 3.5
v -5.5 4 3.5
v -4.5 1 3.5
v -4.5 4 3.5
v -3.5 1 3.5
v -3.5 4 3.5
v -6.5 0 7.5
v -5.5 0 7.5
v -4.5 0 7.5
v -3.5 0 7.5
v -6.5 0 4.5
v -5.5 0 4.5
v -4.5 0 4.5
v -3.5 0 4.5
v -6.5 1 8.5
v -5.5 1 8.5
v -4.5 1 8.5
v -3.5 1 8.5
v -6.5 1 7.5
v -5.5 1 7.5
v -4.5 1 7.5
v -3.5 1 7.5
v -6.5 1 4.5
v -5.5 1 4.5
v -4.5 1 4.5
v -3.5 1 4.5
v -6.5 1 3.5
v -5.5 1 3.5
v -4.5 1 3.5
v -3.5 1 3.5
v -6.5 3 6.5
v -5.5 3 6.5
v -4.5 3 6.5
v -3.5 3 6.5
v -6.5 3 5.5
v -5.5 3 5.5
v -4.5 3 5.5
v -3.5 3 5.5
v -6.5 2 6.5
v -5.5 2 6.5
v -4.5 2 6.5
v -3.5 2 6.5
v -6.5 2 5.5
v -5.5 2 5.5
v -4.5 2 5.5
v -3.5 2 5.5
v -6.5 4 8.5
v -5.5 4 8.5
v -4.5 4 8.5
v -3.5 4 8.5
v -6.5 4 7.5
v -5.5 4 7.5
v -4.5 4 7.5
v -3.5 4 7.5
v -6.5 4 4.5
v -5.5 4 4.5
v -4.5 4 4.5
v -3.5 4 4.5
v -6.5 4 3.5
v -5.5 4 3.5
v -4.5 4 3.5
v -3.5 4 3.5
v -6.5 5 7.5
v -5.5 5 7.5
v -4.5 5 7.5
v -3.5 5 7.5
v -6.5 5 4.5
v -5.5 5 4.5
v -4.5 5 4.5
v -3.5 5 4.5

# faces
f 4/1/1 2/1/1 1/1/1
f 5/1/1 2/1/1 4/1/1
f 7/1/1 4/1/1 3/1/1
f 7/1/1 6/1/1 5/1/1
f 7/1/1 5/1/1 4/1/1
f 8/1/1 6/1/1 7/1/1
f 9/1/1 7/1/1 3/1/1
f 10/1/1 6/1/1 8/1/1
f 11/1/1 9/1/1 3/1/1
f 11/1/1 10/1/1 9/1/1
f 12/1/1 10/1/1 11/1/1
f 13/1/1 6/1/1 10/1/1
f 13/1/1 10/1/1 12/1/1
f 14/1/1 6/1/1 13/1/1
f 15/1/1 13/1/1 12/1/1
f 16/1/1 13/1/1 15/1/1
f 20/2/1 18/2/1 17/2/1
f 21/2/1 18/2/1 20/2/1
f 23/2/1 20/2/1 19/2/1
f 23/2/1 22/2/1 21/2/1
f 23/2/1 21/2/1 20/2/1
f 24/2/1 22/2/1 23/2/1
f 25/2/1 23/2/1 19/2/1
f 26/2/1 22/2/1 24/2/1
f 27/2/1 25/2/1 19/2/1
f 27/2/1 26/2/1 25/2/1
f 28/2/1 26/2/1 27/2/1
f 29/2/1 22/2/1 26/2/1
f 29/2/1 26/2/1 28/2/1
f 30/2/1 22/2/1 29/2/1
f 31/2/1 29/2/1 28/2/1
f 32/2/1 29/2/1 31/2/1
f 33/1/2 34/1/2 36/1/2
f 36/1/2 34/1/2 37/1/2
f 35/1/2 36/1/2 39/1/2
f 37/1/2 38/1/2 39/1/2
f 36/1/2 37/1/2 39/1/2
f 39/1/2 38/1/2 40/1/2
f 35/1/2 39/1/2 41/1/2
f 40/1/2 38/1/2 42/1/2
f 35/1/2 41/1/2 43/1/2
f 41/1/2 42/1/2 43/1/2
f 43/1/2 42/1/2 44/1/2
f 42/1/2 38/1/2 45/1/2
f 44/1/2 42/1/2 45/1/2
f 45/1/2 38/1/2 46/1/2
f 44/1/2 45/1/2 47/1/2
f 47/1/2 45/1/2 48/1/2
f 49/2/2 50/2/2 52/2/2
f 52/2/2 50/2/2 53/2/2
f 51/2/2 52/2/2 55/2/2
f 53/2/2 54/2/2 55/2/2
f 52/2/2 53/2/2 55/2/2
f 55/2/2 54/2/2 56/2/2
f 51/2/2 55/2/2 57/2/2
f 56/2/2 54/2/2 58/2/2
f 51/2/2 57/2/2 59/2/2
f 57/2/2 58/2/2 59/2/2
f 59/2/2 58/2/2 60/2/2
f 58/2/2 54/2/2 61/2/2
f 60/2/2 58/2/2 61/2/2
f 61/2/2 54/2/2 62/2/2
f 60/2/2 61/2/2 63/2/2
f 63/2/2 61/2/2 64/2/2
f 67/1/3 66/1/3 65/1/3
f 68/1/3 66/1/3 67/1/3
f 71/2/3 70/2/3 69/2/3
f 72/2/3 70/2/3 71/2/3
f 77/1/3 74/1/3 73/1/3
f 78/1/3 74/1/3 77/1/3
f 79/1/3 76/1/3 75/1/3
f 80/1/3 76/1/3 79/1/3
f 85/2/3 82/2/3 81/2/3
f 86/2/3 82/2/3 85/2/3
f 87/2/3 84/2/3 83/2/3
f 88/2/3 84/2/3 87/2/3
f 91/1/3 90/1/3 89/1/3
f 92/1/3 90/1/3 91/1/3
f 95/2/3 94/2/3 93/2/3
f 96/2/3 94/2/3 95/2/3
f 97/1/4 98/1/4 99/1/4
f 99/1/4 98/1/4 100/1/4
f 101/2/4 102/2/4 103/2/4
f 103/2/4 102/2/4 104/2/4
f 105/1/4 106/1/4 109/1/4
f 109/1/4 106/1/4 110/1/4
f 107/1/4 108/1/4 111/1/4
f 111/1/4 108/1/4 112/1/4
f 113/2/4 114/2/4 117/2/4
f 117/2/4 114/2/4 118/2/4
f 115/2/4 116/2/4 119/2/4
f 119/2/4 116/2/4 120/2/4
f 121/1/4 122/1/4 123/1/4
f 123/1/4 122/1/4 124/1/4
f 125/2/4 126/2/4 127/2/4
f 127/2/4 126/2/4 128/2/4
f 133/1/5 130/1/5 129/1/5
f 134/1/5 130/1/5 133/1/5
f 135/2/5 132/2/5 131/2/5
f 136/2/5 132/2/5 135/2/5
f 141/1/5 138/1/5 137/1/5
f 142/1/5 138/1/5 141/1/5
f 143/2/5 140/2/5 139/2/5
f 144/2/5 140/2/5 143/2/5
f 149/1/5 146/1/5 145/1/5
f 150/1/5 146/1/5 149/1/5
f 151/2/5 148/2/5 147/2/5
f 152/2/5 148/2/5 151/2/5
f 157/1/5 154/1/5 153/1/5
f 158/1/5 154/1/5 157/1/5
f 159/2/5 156/2/5 155/2/5
f 160/2/5 156/2/5 159/2/5
f 161/1/6 162/1/6 165/1/6
f 165/1/6 162/1/6 166/1/6
f 163/2/6 164/2/6 167/2/6
f 167/2/6 164/2/6 168/2/6
f 169/1/6 170/1/6 173/1/6
f 173/1/6 170/1/6 174/1/6
f 171/2/6 172/2/6 175/2/6
f 175/2/6 172/2/6 176/2/6
f 177/1/6 178/1/6 181/1/6
f 181/1/6 178/1/6 182/1/6
f 179/2/6 180/2/6 183/2/6
f 183/2/6 180/2/6 184/2/6
f 185/1/6 186/1/6 189/1/6
f 189/1/6 186/1/6 190/1/6
f 187/2/6 188/2/6 191/2/6
f 191/2/6 188/2/6 192/2/6
