# MagicaVoxel @ Ephtracy

# group
g gglive_mom_main

# material
mtllib gglive_mom_main.mtl
usemtl palette

# normals
vn -1 0 0
vn 1 0 0
vn 0 0 1
vn 0 0 -1
vn 0 -1 0
vn 0 1 0

# texcoords
vt 0.103516 0.5
vt 0.138672 0.5
vt 0.158203 0.5
vt 0.208984 0.5
vt 0.236328 0.5
vt 0.408203 0.5
vt 0.599609 0.5
vt 0.607422 0.5
vt 0.623047 0.5
vt 0.681641 0.5
vt 0.740234 0.5
vt 0.904297 0.5
vt 0.955078 0.5
vt 0.958984 0.5
vt 0.994141 0.5

# verts
v -4.5 14 -2.5
v -4.5 14 -3.5
v -4.5 17 0.5
v -4.5 17 -2.5
v -4.5 20 0.5
v -4.5 20 -2.5
v -4.5 22 0.5
v -4.5 22 -3.5
v -3.5 15 1.5
v -3.5 15 -2.5
v -3.5 15 -3.5
v -3.5 15 -4.5
v -3.5 17 2.5
v -3.5 17 1.5
v -3.5 17 0.5
v -3.5 17 -2.5
v -3.5 20 0.5
v -3.5 21 2.5
v -3.5 21 1.5
v -3.5 22 2.5
v -3.5 22 1.5
v -3.5 22 0.5
v -3.5 22 -3.5
v -3.5 23 2.5
v -3.5 23 -4.5
v -2.5 7 0.5
v -2.5 7 -2.5
v -2.5 9 0.5
v -2.5 9 -2.5
v -2.5 14 -3.5
v -2.5 14 -4.5
v -2.5 15 0.5
v -2.5 15 -2.5
v -2.5 15 -3.5
v -2.5 15 -4.5
v -2.5 16 -4.5
v -2.5 16 -5.5
v -2.5 22 -4.5
v -2.5 22 -5.5
v -2.5 23 1.5
v -2.5 23 -3.5
v -2.5 24 1.5
v -2.5 24 -3.5
v -1.5 7 -3.5
v -1.5 7 -4.5
v -1.5 8 -2.5
v -1.5 8 -3.5
v -1.5 9 -2.5
v -1.5 9 -3.5
v -1.5 9 -4.5
v -1.5 10 -2.5
v -1.5 10 -3.5
v -1.5 17 3.5
v -1.5 17 2.5
v -1.5 18 2.5
v -1.5 19 3.5
v -1.5 19 2.5
v -1.5 21 2.5
v -1.5 21 1.5
v -1.5 21 -1.5
v -1.5 21 -2.5
v -1.5 22 3.5
v -1.5 22 2.5
v -1.5 22 1.5
v -1.5 22 -1.5
v -1.5 22 -2.5
v -1.5 23 2.5
v -1.5 23 1.5
v -1.5 24 3.5
v -1.5 24 1.5
v -0.5 5 -4.5
v -0.5 5 -5.5
v -0.5 7 -4.5
v -0.5 8 -4.5
v -0.5 8 -5.5
v -0.5 10 -2.5
v -0.5 10 -3.5
v -0.5 11 -2.5
v -0.5 11 -3.5
v -0.5 14 -3.5
v -0.5 14 -4.5
v -0.5 15 -3.5
v -0.5 15 -4.5
v -0.5 23 4.5
v -0.5 23 3.5
v -0.5 24 3.5
v -0.5 24 2.5
v -0.5 25 3.5
v -0.5 25 2.5
v -0.5 26 4.5
v -0.5 26 3.5
v 1.5 14 -3.5
v 1.5 14 -4.5
v 1.5 15 -3.5
v 1.5 15 -4.5
v 3.5 14 -2.5
v 3.5 14 -3.5
v 3.5 15 -2.5
v 3.5 15 -3.5
v 3.5 21 -1.5
v 3.5 21 -2.5
v 3.5 22 -1.5
v 3.5 22 -2.5
v -3.5 14 -2.5
v -3.5 14 -3.5
v -3.5 15 -2.5
v -3.5 15 -3.5
v -3.5 21 -1.5
v -3.5 21 -2.5
v -3.5 22 -1.5
v -3.5 22 -2.5
v -1.5 14 -3.5
v -1.5 14 -4.5
v -1.5 15 -3.5
v -1.5 15 -4.5
v 0.5 5 -4.5
v 0.5 5 -5.5
v 0.5 7 -4.5
v 0.5 8 -4.5
v 0.5 8 -5.5
v 0.5 10 -2.5
v 0.5 10 -3.5
v 0.5 11 -2.5
v 0.5 11 -3.5
v 0.5 14 -3.5
v 0.5 14 -4.5
v 0.5 15 -3.5
v 0.5 15 -4.5
v 0.5 23 4.5
v 0.5 23 3.5
v 0.5 24 3.5
v 0.5 24 2.5
v 0.5 25 3.5
v 0.5 25 2.5
v 0.5 26 4.5
v 0.5 26 3.5
v 1.5 7 -3.5
v 1.5 7 -4.5
v 1.5 8 -2.5
v 1.5 8 -3.5
v 1.5 9 -2.5
v 1.5 9 -3.5
v 1.5 9 -4.5
v 1.5 10 -2.5
v 1.5 10 -3.5
v 1.5 17 3.5
v 1.5 17 2.5
v 1.5 18 2.5
v 1.5 19 3.5
v 1.5 19 2.5
v 1.5 21 2.5
v 1.5 21 1.5
v 1.5 21 -1.5
v 1.5 21 -2.5
v 1.5 22 3.5
v 1.5 22 2.5
v 1.5 22 1.5
v 1.5 22 -1.5
v 1.5 22 -2.5
v 1.5 23 2.5
v 1.5 23 1.5
v 1.5 24 3.5
v 1.5 24 1.5
v 2.5 7 0.5
v 2.5 7 -2.5
v 2.5 9 0.5
v 2.5 9 -2.5
v 2.5 14 -3.5
v 2.5 14 -4.5
v 2.5 15 0.5
v 2.5 15 -2.5
v 2.5 15 -3.5
v 2.5 15 -4.5
v 2.5 16 -4.5
v 2.5 16 -5.5
v 2.5 22 -4.5
v 2.5 22 -5.5
v 2.5 23 1.5
v 2.5 23 -3.5
v 2.5 24 1.5
v 2.5 24 -3.5
v 3.5 15 1.5
v 3.5 15 -2.5
v 3.5 15 -3.5
v 3.5 15 -4.5
v 3.5 17 2.5
v 3.5 17 1.5
v 3.5 17 0.5
v 3.5 17 -2.5
v 3.5 20 0.5
v 3.5 21 2.5
v 3.5 21 1.5
v 3.5 22 2.5
v 3.5 22 1.5
v 3.5 22 0.5
v 3.5 22 -3.5
v 3.5 23 2.5
v 3.5 23 -4.5
v 4.5 14 -2.5
v 4.5 14 -3.5
v 4.5 17 0.5
v 4.5 17 -2.5
v 4.5 20 0.5
v 4.5 20 -2.5
v 4.5 22 0.5
v 4.5 22 -3.5
v -0.5 23 4.5
v -0.5 26 4.5
v 0.5 23 4.5
v 0.5 26 4.5
v -1.5 17 3.5
v -1.5 19 3.5
v -1.5 22 3.5
v -1.5 24 3.5
v -0.5 23 3.5
v -0.5 24 3.5
v 0.5 23 3.5
v 0.5 24 3.5
v 1.5 17 3.5
v 1.5 19 3.5
v 1.5 22 3.5
v 1.5 24 3.5
v -3.5 17 2.5
v -3.5 21 2.5
v -3.5 22 2.5
v -3.5 23 2.5
v -2.5 18 2.5
v -2.5 20 2.5
v -1.5 17 2.5
v -1.5 18 2.5
v -1.5 19 2.5
v -1.5 20 2.5
v -1.5 21 2.5
v -1.5 22 2.5
v -1.5 23 2.5
v 1.5 17 2.5
v 1.5 18 2.5
v 1.5 19 2.5
v 1.5 20 2.5
v 1.5 21 2.5
v 1.5 22 2.5
v 1.5 23 2.5
v 2.5 18 2.5
v 2.5 20 2.5
v 3.5 17 2.5
v 3.5 21 2.5
v 3.5 22 2.5
v 3.5 23 2.5
v -3.5 15 1.5
v -3.5 17 1.5
v -3.5 21 1.5
v -3.5 22 1.5
v -2.5 23 1.5
v -2.5 24 1.5
v -1.5 17 1.5
v -1.5 21 1.5
v -1.5 22 1.5
v -1.5 23 1.5
v -1.5 24 1.5
v 1.5 17 1.5
v 1.5 21 1.5
v 1.5 22 1.5
v 1.5 23 1.5
v 1.5 24 1.5
v 2.5 23 1.5
v 2.5 24 1.5
v 3.5 15 1.5
v 3.5 17 1.5
v 3.5 21 1.5
v 3.5 22 1.5
v -4.5 17 0.5
v -4.5 20 0.5
v -4.5 22 0.5
v -3.5 17 0.5
v -3.5 20 0.5
v -3.5 22 0.5
v -2.5 7 0.5
v -2.5 9 0.5
v -2.5 15 0.5
v -1.5 12 0.5
v -1.5 15 0.5
v -0.5 11 0.5
v -0.5 12 0.5
v -0.5 14 0.5
v -0.5 15 0.5
v 0.5 11 0.5
v 0.5 12 0.5
v 0.5 14 0.5
v 0.5 15 0.5
v 1.5 12 0.5
v 1.5 15 0.5
v 2.5 7 0.5
v 2.5 9 0.5
v 2.5 15 0.5
v 3.5 17 0.5
v 3.5 20 0.5
v 3.5 22 0.5
v 4.5 17 0.5
v 4.5 20 0.5
v 4.5 22 0.5
v -4.5 14 -2.5
v -4.5 17 -2.5
v -3.5 14 -2.5
v -3.5 15 -2.5
v -3.5 17 -2.5
v -3.5 21 -2.5
v -3.5 22 -2.5
v -2.5 21 -2.5
v -2.5 22 -2.5
v -1.5 21 -2.5
v -1.5 22 -2.5
v 1.5 21 -2.5
v 1.5 22 -2.5
v 2.5 21 -2.5
v 2.5 22 -2.5
v 3.5 14 -2.5
v 3.5 15 -2.5
v 3.5 17 -2.5
v 3.5 21 -2.5
v 3.5 22 -2.5
v 4.5 14 -2.5
v 4.5 17 -2.5
v -2.5 14 -3.5
v -2.5 15 -3.5
v -1.5 7 -3.5
v -1.5 8 -3.5
v -1.5 14 -3.5
v -1.5 15 -3.5
v -0.5 14 -3.5
v -0.5 15 -3.5
v 0.5 14 -3.5
v 0.5 15 -3.5
v 1.5 7 -3.5
v 1.5 8 -3.5
v 1.5 14 -3.5
v 1.5 15 -3.5
v 2.5 14 -3.5
v 2.5 15 -3.5
v -0.5 5 -4.5
v -0.5 7 -4.5
v 0.5 5 -4.5
v 0.5 7 -4.5
v -0.5 25 3.5
v -0.5 26 3.5
v 0.5 25 3.5
v 0.5 26 3.5
v -0.5 24 2.5
v -0.5 25 2.5
v 0.5 24 2.5
v 0.5 25 2.5
v -3.5 21 -1.5
v -3.5 22 -1.5
v -2.5 21 -1.5
v -2.5 22 -1.5
v -1.5 21 -1.5
v -1.5 22 -1.5
v 1.5 21 -1.5
v 1.5 22 -1.5
v 2.5 21 -1.5
v 2.5 22 -1.5
v 3.5 21 -1.5
v 3.5 22 -1.5
v -2.5 7 -2.5
v -2.5 9 -2.5
v -2.5 15 -2.5
v -1.5 8 -2.5
v -1.5 9 -2.5
v -1.5 10 -2.5
v -0.5 10 -2.5
v -0.5 11 -2.5
v 0.5 10 -2.5
v 0.5 11 -2.5
v 1.5 8 -2.5
v 1.5 9 -2.5
v 1.5 10 -2.5
v 2.5 7 -2.5
v 2.5 9 -2.5
v 2.5 15 -2.5
v -4.5 14 -3.5
v -4.5 22 -3.5
v -3.5 14 -3.5
v -3.5 15 -3.5
v -3.5 22 -3.5
v -2.5 23 -3.5
v -2.5 24 -3.5
v -1.5 9 -3.5
v -1.5 10 -3.5
v -0.5 10 -3.5
v -0.5 11 -3.5
v 0.5 10 -3.5
v 0.5 11 -3.5
v 1.5 9 -3.5
v 1.5 10 -3.5
v 2.5 23 -3.5
v 2.5 24 -3.5
v 3.5 14 -3.5
v 3.5 15 -3.5
v 3.5 22 -3.5
v 4.5 14 -3.5
v 4.5 22 -3.5
v -3.5 15 -4.5
v -3.5 23 -4.5
v -2.5 14 -4.5
v -2.5 15 -4.5
v -2.5 16 -4.5
v -2.5 22 -4.5
v -1.5 7 -4.5
v -1.5 9 -4.5
v -1.5 14 -4.5
v -1.5 15 -4.5
v -0.5 7 -4.5
v -0.5 8 -4.5
v -0.5 14 -4.5
v -0.5 15 -4.5
v 0.5 7 -4.5
v 0.5 8 -4.5
v 0.5 14 -4.5
v 0.5 15 -4.5
v 1.5 7 -4.5
v 1.5 9 -4.5
v 1.5 14 -4.5
v 1.5 15 -4.5
v 2.5 14 -4.5
v 2.5 15 -4.5
v 2.5 16 -4.5
v 2.5 22 -4.5
v 3.5 15 -4.5
v 3.5 23 -4.5
v -2.5 16 -5.5
v -2.5 22 -5.5
v -0.5 5 -5.5
v -0.5 8 -5.5
v 0.5 5 -5.5
v 0.5 8 -5.5
v 2.5 16 -5.5
v 2.5 22 -5.5
v -0.5 5 -4.5
v 0.5 5 -4.5
v -0.5 5 -5.5
v 0.5 5 -5.5
v -2.5 7 0.5
v 2.5 7 0.5
v -2.5 7 -2.5
v 2.5 7 -2.5
v -1.5 7 -3.5
v 1.5 7 -3.5
v -1.5 7 -4.5
v -0.5 7 -4.5
v 0.5 7 -4.5
v 1.5 7 -4.5
v -1.5 8 -2.5
v 1.5 8 -2.5
v -1.5 8 -3.5
v 1.5 8 -3.5
v -4.5 14 -2.5
v -3.5 14 -2.5
v 3.5 14 -2.5
v 4.5 14 -2.5
v -4.5 14 -3.5
v -3.5 14 -3.5
v -2.5 14 -3.5
v -1.5 14 -3.5
v -0.5 14 -3.5
v 0.5 14 -3.5
v 1.5 14 -3.5
v 2.5 14 -3.5
v 3.5 14 -3.5
v 4.5 14 -3.5
v -2.5 14 -4.5
v -1.5 14 -4.5
v -0.5 14 -4.5
v 0.5 14 -4.5
v 1.5 14 -4.5
v 2.5 14 -4.5
v -3.5 15 1.5
v 3.5 15 1.5
v -2.5 15 0.5
v -1.5 15 0.5
v -0.5 15 0.5
v 0.5 15 0.5
v 1.5 15 0.5
v 2.5 15 0.5
v -3.5 15 -2.5
v -2.5 15 -2.5
v 2.5 15 -2.5
v 3.5 15 -2.5
v -3.5 15 -3.5
v -2.5 15 -3.5
v -1.5 15 -3.5
v -0.5 15 -3.5
v 0.5 15 -3.5
v 1.5 15 -3.5
v 2.5 15 -3.5
v 3.5 15 -3.5
v -3.5 15 -4.5
v -2.5 15 -4.5
v -1.5 15 -4.5
v -0.5 15 -4.5
v 0.5 15 -4.5
v 1.5 15 -4.5
v 2.5 15 -4.5
v 3.5 15 -4.5
v -2.5 16 -4.5
v 2.5 16 -4.5
v -2.5 16 -5.5
v 2.5 16 -5.5
v -1.5 17 3.5
v 1.5 17 3.5
v -3.5 17 2.5
v -1.5 17 2.5
v 1.5 17 2.5
v 3.5 17 2.5
v -3.5 17 1.5
v -1.5 17 1.5
v 1.5 17 1.5
v 3.5 17 1.5
v -4.5 17 0.5
v -3.5 17 0.5
v 3.5 17 0.5
v 4.5 17 0.5
v -4.5 17 -2.5
v -3.5 17 -2.5
v 3.5 17 -2.5
v 4.5 17 -2.5
v -1.5 22 3.5
v 1.5 22 3.5
v -3.5 22 2.5
v -1.5 22 2.5
v 1.5 22 2.5
v 3.5 22 2.5
v -3.5 22 1.5
v -1.5 22 1.5
v 1.5 22 1.5
v 3.5 22 1.5
v -3.5 22 -1.5
v -2.5 22 -1.5
v -1.5 22 -1.5
v 1.5 22 -1.5
v 2.5 22 -1.5
v 3.5 22 -1.5
v -3.5 22 -2.5
v -2.5 22 -2.5
v -1.5 22 -2.5
v 1.5 22 -2.5
v 2.5 22 -2.5
v 3.5 22 -2.5
v -0.5 23 4.5
v 0.5 23 4.5
v -0.5 23 3.5
v 0.5 23 3.5
v -0.5 8 -4.5
v 0.5 8 -4.5
v -0.5 8 -5.5
v 0.5 8 -5.5
v -1.5 9 -3.5
v 1.5 9 -3.5
v -1.5 9 -4.5
v 1.5 9 -4.5
v -1.5 10 -2.5
v -0.5 10 -2.5
v 0.5 10 -2.5
v 1.5 10 -2.5
v -1.5 10 -3.5
v -0.5 10 -3.5
v 0.5 10 -3.5
v 1.5 10 -3.5
v -0.5 11 -2.5
v 0.5 11 -2.5
v -0.5 11 -3.5
v 0.5 11 -3.5
v -1.5 19 3.5
v 1.5 19 3.5
v -1.5 19 2.5
v 1.5 19 2.5
v -3.5 21 2.5
v -1.5 21 2.5
v 1.5 21 2.5
v 3.5 21 2.5
v -3.5 21 1.5
v -1.5 21 1.5
v 1.5 21 1.5
v 3.5 21 1.5
v -3.5 21 -1.5
v -2.5 21 -1.5
v -1.5 21 -1.5
v 1.5 21 -1.5
v 2.5 21 -1.5
v 3.5 21 -1.5
v -3.5 21 -2.5
v -2.5 21 -2.5
v -1.5 21 -2.5
v 1.5 21 -2.5
v 2.5 21 -2.5
v 3.5 21 -2.5
v -4.5 22 0.5
v -3.5 22 0.5
v 3.5 22 0.5
v 4.5 22 0.5
v -4.5 22 -3.5
v -3.5 22 -3.5
v 3.5 22 -3.5
v 4.5 22 -3.5
v -2.5 22 -4.5
v 2.5 22 -4.5
v -2.5 22 -5.5
v 2.5 22 -5.5
v -3.5 23 2.5
v -1.5 23 2.5
v 1.5 23 2.5
v 3.5 23 2.5
v -2.5 23 1.5
v -1.5 23 1.5
v 1.5 23 1.5
v 2.5 23 1.5
v -2.5 23 -3.5
v 2.5 23 -3.5
v -3.5 23 -4.5
v 3.5 23 -4.5
v -1.5 24 3.5
v -0.5 24 3.5
v 0.5 24 3.5
v 1.5 24 3.5
v -0.5 24 2.5
v 0.5 24 2.5
v -2.5 24 1.5
v -1.5 24 1.5
v 1.5 24 1.5
v 2.5 24 1.5
v -2.5 24 -3.5
v 2.5 24 -3.5
v -0.5 25 3.5
v 0.5 25 3.5
v -0.5 25 2.5
v 0.5 25 2.5
v -0.5 26 4.5
v 0.5 26 4.5
v -0.5 26 3.5
v 0.5 26 3.5

# faces
f 4/12/1 2/12/1 1/12/1
f 5/8/1 4/8/1 3/8/1
f 6/12/1 2/12/1 4/12/1
f 6/8/1 4/8/1 5/8/1
f 7/12/1 6/12/1 5/12/1
f 8/12/1 2/12/1 6/12/1
f 8/12/1 6/12/1 7/12/1
f 14/8/1 10/8/1 9/8/1
f 15/8/1 10/8/1 14/8/1
f 16/8/1 10/8/1 15/8/1
f 17/8/1 15/8/1 14/8/1
f 18/14/1 14/14/1 13/14/1
f 19/8/1 17/8/1 14/8/1
f 19/14/1 14/14/1 18/14/1
f 21/8/1 17/8/1 19/8/1
f 22/8/1 17/8/1 21/8/1
f 23/12/1 12/12/1 11/12/1
f 24/12/1 22/12/1 21/12/1
f 24/12/1 23/12/1 22/12/1
f 24/12/1 21/12/1 20/12/1
f 25/12/1 12/12/1 23/12/1
f 25/12/1 23/12/1 24/12/1
f 28/15/1 27/15/1 26/15/1
f 29/15/1 27/15/1 28/15/1
f 32/5/1 29/5/1 28/5/1
f 33/5/1 29/5/1 32/5/1
f 34/12/1 31/12/1 30/12/1
f 35/12/1 31/12/1 34/12/1
f 38/12/1 37/12/1 36/12/1
f 39/12/1 37/12/1 38/12/1
f 42/12/1 41/12/1 40/12/1
f 43/12/1 41/12/1 42/12/1
f 47/4/1 45/4/1 44/4/1
f 48/4/1 47/4/1 46/4/1
f 49/4/1 45/4/1 47/4/1
f 49/4/1 47/4/1 48/4/1
f 50/4/1 45/4/1 49/4/1
f 51/4/1 49/4/1 48/4/1
f 52/4/1 49/4/1 51/4/1
f 55/10/1 54/10/1 53/10/1
f 56/10/1 55/10/1 53/10/1
f 57/10/1 55/10/1 56/10/1
f 63/12/1 59/12/1 58/12/1
f 64/12/1 59/12/1 63/12/1
f 65/7/1 61/7/1 60/7/1
f 66/7/1 61/7/1 65/7/1
f 67/4/1 63/4/1 62/4/1
f 69/4/1 67/4/1 62/4/1
f 69/4/1 68/4/1 67/4/1
f 70/4/1 68/4/1 69/4/1
f 73/4/1 72/4/1 71/4/1
f 74/4/1 72/4/1 73/4/1
f 75/4/1 72/4/1 74/4/1
f 78/4/1 77/4/1 76/4/1
f 79/4/1 77/4/1 78/4/1
f 82/12/1 81/12/1 80/12/1
f 83/12/1 81/12/1 82/12/1
f 86/4/1 85/4/1 84/4/1
f 88/4/1 86/4/1 84/4/1
f 88/4/1 87/4/1 86/4/1
f 89/4/1 87/4/1 88/4/1
f 90/4/1 88/4/1 84/4/1
f 91/4/1 88/4/1 90/4/1
f 94/12/1 93/12/1 92/12/1
f 95/12/1 93/12/1 94/12/1
f 98/12/1 97/12/1 96/12/1
f 99/12/1 97/12/1 98/12/1
f 102/12/1 101/12/1 100/12/1
f 103/12/1 101/12/1 102/12/1
f 104/12/2 105/12/2 106/12/2
f 106/12/2 105/12/2 107/12/2
f 108/12/2 109/12/2 110/12/2
f 110/12/2 109/12/2 111/12/2
f 112/12/2 113/12/2 114/12/2
f 114/12/2 113/12/2 115/12/2
f 116/4/2 117/4/2 118/4/2
f 118/4/2 117/4/2 119/4/2
f 119/4/2 117/4/2 120/4/2
f 121/4/2 122/4/2 123/4/2
f 123/4/2 122/4/2 124/4/2
f 125/12/2 126/12/2 127/12/2
f 127/12/2 126/12/2 128/12/2
f 129/4/2 130/4/2 131/4/2
f 129/4/2 131/4/2 133/4/2
f 131/4/2 132/4/2 133/4/2
f 133/4/2 132/4/2 134/4/2
f 129/4/2 133/4/2 135/4/2
f 135/4/2 133/4/2 136/4/2
f 137/4/2 138/4/2 140/4/2
f 139/4/2 140/4/2 141/4/2
f 140/4/2 138/4/2 142/4/2
f 141/4/2 140/4/2 142/4/2
f 142/4/2 138/4/2 143/4/2
f 141/4/2 142/4/2 144/4/2
f 144/4/2 142/4/2 145/4/2
f 146/10/2 147/10/2 148/10/2
f 146/10/2 148/10/2 149/10/2
f 149/10/2 148/10/2 150/10/2
f 151/12/2 152/12/2 156/12/2
f 156/12/2 152/12/2 157/12/2
f 153/7/2 154/7/2 158/7/2
f 158/7/2 154/7/2 159/7/2
f 155/4/2 156/4/2 160/4/2
f 155/4/2 160/4/2 162/4/2
f 160/4/2 161/4/2 162/4/2
f 162/4/2 161/4/2 163/4/2
f 164/15/2 165/15/2 166/15/2
f 166/15/2 165/15/2 167/15/2
f 166/5/2 167/5/2 170/5/2
f 170/5/2 167/5/2 171/5/2
f 168/12/2 169/12/2 172/12/2
f 172/12/2 169/12/2 173/12/2
f 174/12/2 175/12/2 176/12/2
f 176/12/2 175/12/2 177/12/2
f 178/12/2 179/12/2 180/12/2
f 180/12/2 179/12/2 181/12/2
f 182/8/2 183/8/2 187/8/2
f 187/8/2 183/8/2 188/8/2
f 188/8/2 183/8/2 189/8/2
f 187/8/2 188/8/2 190/8/2
f 186/14/2 187/14/2 191/14/2
f 187/8/2 190/8/2 192/8/2
f 191/14/2 187/14/2 192/14/2
f 192/8/2 190/8/2 194/8/2
f 194/8/2 190/8/2 195/8/2
f 184/12/2 185/12/2 196/12/2
f 194/12/2 195/12/2 197/12/2
f 195/12/2 196/12/2 197/12/2
f 193/12/2 194/12/2 197/12/2
f 196/12/2 185/12/2 198/12/2
f 197/12/2 196/12/2 198/12/2
f 199/12/2 200/12/2 202/12/2
f 201/8/2 202/8/2 203/8/2
f 202/12/2 200/12/2 204/12/2
f 203/8/2 202/8/2 204/8/2
f 203/12/2 204/12/2 205/12/2
f 204/12/2 200/12/2 206/12/2
f 205/12/2 204/12/2 206/12/2
f 209/4/3 208/4/3 207/4/3
f 210/4/3 208/4/3 209/4/3
f 215/4/3 214/4/3 213/4/3
f 216/4/3 214/4/3 215/4/3
f 217/4/3 215/4/3 213/4/3
f 219/10/3 212/10/3 211/10/3
f 220/10/3 212/10/3 219/10/3
f 221/4/3 218/4/3 217/4/3
f 221/4/3 217/4/3 213/4/3
f 222/4/3 218/4/3 221/4/3
f 227/14/3 224/14/3 223/14/3
f 228/14/3 224/14/3 227/14/3
f 229/14/3 227/14/3 223/14/3
f 230/13/3 228/13/3 227/13/3
f 230/14/3 227/14/3 229/14/3
f 231/13/3 228/13/3 230/13/3
f 232/14/3 224/14/3 228/14/3
f 232/13/3 228/13/3 231/13/3
f 233/14/3 224/14/3 232/14/3
f 234/12/3 226/12/3 225/12/3
f 235/12/3 226/12/3 234/12/3
f 238/10/3 232/10/3 231/10/3
f 239/12/3 233/12/3 232/12/3
f 239/12/3 234/12/3 233/12/3
f 239/10/3 232/10/3 238/10/3
f 240/12/3 234/12/3 239/12/3
f 241/12/3 234/12/3 240/12/3
f 243/13/3 238/13/3 237/13/3
f 243/14/3 237/14/3 236/14/3
f 243/13/3 239/13/3 238/13/3
f 244/14/3 240/14/3 239/14/3
f 244/13/3 239/13/3 243/13/3
f 245/14/3 243/14/3 236/14/3
f 245/14/3 244/14/3 243/14/3
f 246/14/3 240/14/3 244/14/3
f 246/14/3 244/14/3 245/14/3
f 247/12/3 242/12/3 241/12/3
f 248/12/3 242/12/3 247/12/3
f 255/8/3 250/8/3 249/8/3
f 256/8/3 252/8/3 251/8/3
f 257/8/3 252/8/3 256/8/3
f 258/12/3 254/12/3 253/12/3
f 259/12/3 254/12/3 258/12/3
f 260/8/3 255/8/3 249/8/3
f 265/12/3 264/12/3 263/12/3
f 266/12/3 264/12/3 265/12/3
f 267/8/3 260/8/3 249/8/3
f 268/8/3 260/8/3 267/8/3
f 269/8/3 262/8/3 261/8/3
f 270/8/3 262/8/3 269/8/3
f 274/8/3 272/8/3 271/8/3
f 275/12/3 273/12/3 272/12/3
f 275/8/3 272/8/3 274/8/3
f 276/12/3 273/12/3 275/12/3
f 280/5/3 279/5/3 278/5/3
f 281/5/3 279/5/3 280/5/3
f 282/5/3 280/5/3 278/5/3
f 283/1/3 281/1/3 280/1/3
f 283/5/3 280/5/3 282/5/3
f 284/1/3 281/1/3 283/1/3
f 285/1/3 281/1/3 284/1/3
f 286/5/3 282/5/3 278/5/3
f 286/1/3 283/1/3 282/1/3
f 286/1/3 284/1/3 283/1/3
f 287/1/3 284/1/3 286/1/3
f 288/8/3 285/8/3 284/8/3
f 288/1/3 284/1/3 287/1/3
f 289/8/3 285/8/3 288/8/3
f 290/5/3 287/5/3 286/5/3
f 290/1/3 288/1/3 287/1/3
f 290/1/3 289/1/3 288/1/3
f 291/1/3 289/1/3 290/1/3
f 292/15/3 278/15/3 277/15/3
f 293/5/3 286/5/3 278/5/3
f 293/15/3 278/15/3 292/15/3
f 293/5/3 290/5/3 286/5/3
f 293/5/3 291/5/3 290/5/3
f 294/5/3 291/5/3 293/5/3
f 298/8/3 296/8/3 295/8/3
f 299/12/3 297/12/3 296/12/3
f 299/8/3 296/8/3 298/8/3
f 300/12/3 297/12/3 299/12/3
f 303/12/3 302/12/3 301/12/3
f 304/12/3 302/12/3 303/12/3
f 305/12/3 302/12/3 304/12/3
f 308/7/3 307/7/3 306/7/3
f 309/7/3 307/7/3 308/7/3
f 310/7/3 309/7/3 308/7/3
f 311/7/3 309/7/3 310/7/3
f 314/7/3 313/7/3 312/7/3
f 315/7/3 313/7/3 314/7/3
f 319/7/3 315/7/3 314/7/3
f 320/7/3 315/7/3 319/7/3
f 321/12/3 318/12/3 317/12/3
f 321/12/3 317/12/3 316/12/3
f 322/12/3 318/12/3 321/12/3
f 327/12/3 324/12/3 323/12/3
f 328/12/3 324/12/3 327/12/3
f 331/12/3 330/12/3 329/12/3
f 332/12/3 330/12/3 331/12/3
f 333/4/3 326/4/3 325/4/3
f 334/4/3 326/4/3 333/4/3
f 337/12/3 336/12/3 335/12/3
f 338/12/3 336/12/3 337/12/3
f 341/4/3 340/4/3 339/4/3
f 342/4/3 340/4/3 341/4/3
f 343/4/4 344/4/4 345/4/4
f 345/4/4 344/4/4 346/4/4
f 347/4/4 348/4/4 349/4/4
f 349/4/4 348/4/4 350/4/4
f 351/7/4 352/7/4 353/7/4
f 353/7/4 352/7/4 354/7/4
f 353/8/4 354/8/4 355/8/4
f 355/8/4 354/8/4 356/8/4
f 357/8/4 358/8/4 359/8/4
f 359/8/4 358/8/4 360/8/4
f 359/7/4 360/7/4 361/7/4
f 361/7/4 360/7/4 362/7/4
f 363/15/4 364/15/4 366/15/4
f 364/5/4 365/5/4 367/5/4
f 366/15/4 364/15/4 367/15/4
f 367/5/4 365/5/4 368/5/4
f 368/5/4 365/5/4 369/5/4
f 369/5/4 365/5/4 370/5/4
f 370/5/4 365/5/4 372/5/4
f 363/15/4 366/15/4 373/15/4
f 371/5/4 372/5/4 375/5/4
f 373/15/4 374/15/4 376/15/4
f 363/15/4 373/15/4 376/15/4
f 374/5/4 375/5/4 377/5/4
f 376/15/4 374/15/4 377/15/4
f 372/5/4 365/5/4 378/5/4
f 377/5/4 375/5/4 378/5/4
f 375/5/4 372/5/4 378/5/4
f 379/12/4 380/12/4 381/12/4
f 381/12/4 380/12/4 382/12/4
f 382/12/4 380/12/4 383/12/4
f 386/4/4 387/4/4 388/4/4
f 386/4/4 388/4/4 390/4/4
f 388/4/4 389/4/4 390/4/4
f 390/4/4 389/4/4 391/4/4
f 386/4/4 390/4/4 392/4/4
f 392/4/4 390/4/4 393/4/4
f 384/12/4 385/12/4 394/12/4
f 394/12/4 385/12/4 395/12/4
f 396/12/4 397/12/4 399/12/4
f 397/12/4 398/12/4 399/12/4
f 399/12/4 398/12/4 400/12/4
f 401/12/4 402/12/4 404/12/4
f 404/12/4 402/12/4 405/12/4
f 405/12/4 402/12/4 406/12/4
f 403/12/4 404/12/4 409/12/4
f 404/12/4 405/12/4 409/12/4
f 409/12/4 405/12/4 410/12/4
f 407/4/4 408/4/4 411/4/4
f 411/4/4 408/4/4 412/4/4
f 410/12/4 405/12/4 414/12/4
f 412/4/4 408/4/4 416/4/4
f 413/12/4 414/12/4 417/12/4
f 414/12/4 405/12/4 418/12/4
f 417/12/4 414/12/4 418/12/4
f 415/4/4 416/4/4 419/4/4
f 416/4/4 408/4/4 420/4/4
f 419/4/4 416/4/4 420/4/4
f 418/12/4 405/12/4 422/12/4
f 421/12/4 422/12/4 423/12/4
f 422/12/4 405/12/4 424/12/4
f 423/12/4 422/12/4 424/12/4
f 424/12/4 405/12/4 425/12/4
f 406/12/4 402/12/4 426/12/4
f 424/12/4 425/12/4 427/12/4
f 425/12/4 426/12/4 427/12/4
f 426/12/4 402/12/4 428/12/4
f 427/12/4 426/12/4 428/12/4
f 431/4/4 432/4/4 433/4/4
f 433/4/4 432/4/4 434/4/4
f 429/12/4 430/12/4 435/12/4
f 435/12/4 430/12/4 436/12/4
f 439/4/5 438/4/5 437/4/5
f 440/4/5 438/4/5 439/4/5
f 443/15/5 442/15/5 441/15/5
f 444/15/5 442/15/5 443/15/5
f 447/4/5 446/4/5 445/4/5
f 448/4/5 446/4/5 447/4/5
f 449/4/5 446/4/5 448/4/5
f 450/4/5 446/4/5 449/4/5
f 453/4/5 452/4/5 451/4/5
f 454/4/5 452/4/5 453/4/5
f 459/12/5 456/12/5 455/12/5
f 460/12/5 456/12/5 459/12/5
f 467/12/5 458/12/5 457/12/5
f 468/12/5 458/12/5 467/12/5
f 469/12/5 462/12/5 461/12/5
f 470/12/5 462/12/5 469/12/5
f 471/12/5 464/12/5 463/12/5
f 472/12/5 464/12/5 471/12/5
f 473/12/5 466/12/5 465/12/5
f 474/12/5 466/12/5 473/12/5
f 477/8/5 476/8/5 475/8/5
f 478/8/5 476/8/5 477/8/5
f 479/8/5 476/8/5 478/8/5
f 480/8/5 476/8/5 479/8/5
f 481/8/5 476/8/5 480/8/5
f 482/8/5 476/8/5 481/8/5
f 483/8/5 477/8/5 475/8/5
f 484/8/5 477/8/5 483/8/5
f 485/8/5 476/8/5 482/8/5
f 486/8/5 476/8/5 485/8/5
f 487/9/5 484/9/5 483/9/5
f 488/11/5 485/11/5 484/11/5
f 488/9/5 484/9/5 487/9/5
f 489/11/5 485/11/5 488/11/5
f 490/11/5 485/11/5 489/11/5
f 491/11/5 485/11/5 490/11/5
f 492/11/5 485/11/5 491/11/5
f 493/9/5 486/9/5 485/9/5
f 493/11/5 485/11/5 492/11/5
f 494/9/5 486/9/5 493/9/5
f 495/12/5 488/12/5 487/12/5
f 496/12/5 488/12/5 495/12/5
f 497/12/5 490/12/5 489/12/5
f 498/12/5 490/12/5 497/12/5
f 499/12/5 492/12/5 491/12/5
f 500/12/5 492/12/5 499/12/5
f 501/12/5 494/12/5 493/12/5
f 502/12/5 494/12/5 501/12/5
f 505/12/5 504/12/5 503/12/5
f 506/12/5 504/12/5 505/12/5
f 510/10/5 508/10/5 507/10/5
f 511/10/5 508/10/5 510/10/5
f 513/14/5 510/14/5 509/14/5
f 514/10/5 511/10/5 510/10/5
f 514/14/5 510/14/5 513/14/5
f 515/14/5 512/14/5 511/14/5
f 515/10/5 511/10/5 514/10/5
f 516/14/5 512/14/5 515/14/5
f 521/8/5 518/8/5 517/8/5
f 522/8/5 518/8/5 521/8/5
f 523/8/5 520/8/5 519/8/5
f 524/8/5 520/8/5 523/8/5
f 528/4/5 526/4/5 525/4/5
f 529/4/5 526/4/5 528/4/5
f 531/12/5 528/12/5 527/12/5
f 532/12/5 528/12/5 531/12/5
f 533/12/5 530/12/5 529/12/5
f 534/12/5 530/12/5 533/12/5
f 541/12/5 536/12/5 535/12/5
f 542/3/5 537/3/5 536/3/5
f 542/12/5 536/12/5 541/12/5
f 543/3/5 537/3/5 542/3/5
f 544/3/5 539/3/5 538/3/5
f 545/12/5 540/12/5 539/12/5
f 545/3/5 539/3/5 544/3/5
f 546/12/5 540/12/5 545/12/5
f 549/4/5 548/4/5 547/4/5
f 550/4/5 548/4/5 549/4/5
f 551/4/6 552/4/6 553/4/6
f 553/4/6 552/4/6 554/4/6
f 555/4/6 556/4/6 557/4/6
f 557/4/6 556/4/6 558/4/6
f 559/4/6 560/4/6 563/4/6
f 563/4/6 560/4/6 564/4/6
f 561/4/6 562/4/6 565/4/6
f 565/4/6 562/4/6 566/4/6
f 567/4/6 568/4/6 569/4/6
f 569/4/6 568/4/6 570/4/6
f 571/10/6 572/10/6 573/10/6
f 573/10/6 572/10/6 574/10/6
f 575/14/6 576/14/6 579/14/6
f 579/14/6 576/14/6 580/14/6
f 577/14/6 578/14/6 581/14/6
f 581/14/6 578/14/6 582/14/6
f 583/7/6 584/7/6 589/7/6
f 584/11/6 585/11/6 590/11/6
f 589/7/6 584/7/6 590/7/6
f 590/11/6 585/11/6 591/11/6
f 586/11/6 587/11/6 592/11/6
f 587/7/6 588/7/6 593/7/6
f 592/11/6 587/11/6 593/11/6
f 593/7/6 588/7/6 594/7/6
f 595/12/6 596/12/6 599/12/6
f 599/12/6 596/12/6 600/12/6
f 597/12/6 598/12/6 601/12/6
f 601/12/6 598/12/6 602/12/6
f 603/12/6 604/12/6 605/12/6
f 605/12/6 604/12/6 606/12/6
f 607/12/6 608/12/6 611/12/6
f 611/12/6 608/12/6 612/12/6
f 609/12/6 610/12/6 613/12/6
f 613/12/6 610/12/6 614/12/6
f 607/12/6 611/12/6 615/12/6
f 614/12/6 610/12/6 616/12/6
f 607/12/6 615/12/6 617/12/6
f 615/12/6 616/12/6 617/12/6
f 616/12/6 610/12/6 618/12/6
f 617/12/6 616/12/6 618/12/6
f 619/4/6 620/4/6 623/4/6
f 621/4/6 622/4/6 624/4/6
f 619/4/6 623/4/6 626/4/6
f 623/4/6 624/4/6 626/4/6
f 624/4/6 622/4/6 627/4/6
f 626/4/6 624/4/6 627/4/6
f 625/12/6 626/12/6 629/12/6
f 627/12/6 628/12/6 629/12/6
f 626/12/6 627/12/6 629/12/6
f 629/12/6 628/12/6 630/12/6
f 631/4/6 632/4/6 633/4/6
f 633/4/6 632/4/6 634/4/6
f 635/4/6 636/4/6 637/4/6
f 637/4/6 636/4/6 638/4/6
