# MagicaVoxel @ Ephtracy

# group
g gglive_mimicker_main

# material
mtllib gglive_mimicker_main.mtl
usemtl palette

# normals
vn -1 0 0
vn 1 0 0
vn 0 0 1
vn 0 0 -1
vn 0 -1 0
vn 0 1 0

# texcoords
vt 0.138672 0.5
vt 0.158203 0.5
vt 0.298828 0.5
vt 0.408203 0.5
vt 0.458984 0.5
vt 0.599609 0.5
vt 0.740234 0.5
vt 0.958984 0.5
vt 0.994141 0.5

# verts
v -4.5 17 0.5
v -4.5 17 -2.5
v -4.5 20 0.5
v -4.5 20 -2.5
v -3.5 15 1.5
v -3.5 15 -3.5
v -3.5 17 0.5
v -3.5 17 -2.5
v -3.5 20 0.5
v -3.5 20 -2.5
v -3.5 22 1.5
v -3.5 22 -3.5
v -3.5 23 1.5
v -3.5 23 -3.5
v -3.5 24 0.5
v -3.5 24 -2.5
v -3.5 25 0.5
v -3.5 25 -2.5
v -2.5 7 0.5
v -2.5 7 -2.5
v -2.5 9 0.5
v -2.5 9 -2.5
v -2.5 10 0.5
v -2.5 10 -2.5
v -2.5 11 0.5
v -2.5 11 -2.5
v -2.5 12 0.5
v -2.5 12 -2.5
v -2.5 13 0.5
v -2.5 13 -2.5
v -2.5 14 0.5
v -2.5 14 -2.5
v -2.5 15 0.5
v -2.5 15 -2.5
v -2.5 18 2.5
v -2.5 18 1.5
v -2.5 20 2.5
v -2.5 20 1.5
v -2.5 23 1.5
v -2.5 23 -3.5
v -2.5 23 -4.5
v -2.5 24 1.5
v -2.5 24 0.5
v -2.5 24 -2.5
v -2.5 24 -3.5
v -2.5 24 -4.5
v -2.5 25 1.5
v -2.5 25 0.5
v -2.5 25 -2.5
v -2.5 25 -3.5
v -1.5 17 3.5
v -1.5 17 1.5
v -1.5 18 2.5
v -1.5 18 1.5
v -1.5 19 3.5
v -1.5 19 2.5
v -1.5 22 -3.5
v -1.5 22 -4.5
v -1.5 23 2.5
v -1.5 23 1.5
v -1.5 23 -3.5
v -1.5 23 -4.5
v -1.5 24 1.5
v -1.5 24 -3.5
v -1.5 24 -4.5
v -1.5 25 2.5
v -1.5 25 1.5
v -1.5 25 -2.5
v -1.5 25 -3.5
v -1.5 25 -4.5
v -1.5 26 1.5
v -1.5 26 -2.5
v -0.5 25 -2.5
v -0.5 25 -3.5
v -0.5 26 -2.5
v -0.5 26 -3.5
v 0.5 21 -3.5
v 0.5 21 -4.5
v 0.5 22 2.5
v 0.5 22 1.5
v 0.5 22 -3.5
v 0.5 22 -4.5
v 0.5 23 2.5
v 0.5 23 1.5
v 2.5 26 -0.5
v 2.5 26 -1.5
v 2.5 28 -0.5
v 2.5 28 -1.5
v 1.5 17 3.5
v 1.5 17 1.5
v 1.5 18 2.5
v 1.5 18 1.5
v 1.5 19 3.5
v 1.5 19 2.5
v 2.5 7 0.5
v 2.5 7 -2.5
v 2.5 9 0.5
v 2.5 9 -2.5
v 2.5 10 0.5
v 2.5 10 -2.5
v 2.5 11 0.5
v 2.5 11 -2.5
v 2.5 12 0.5
v 2.5 12 -2.5
v 2.5 13 0.5
v 2.5 13 -2.5
v 2.5 14 0.5
v 2.5 14 -2.5
v 2.5 15 0.5
v 2.5 15 -2.5
v 2.5 18 2.5
v 2.5 18 1.5
v 2.5 20 2.5
v 2.5 20 1.5
v 2.5 24 -3.5
v 2.5 24 -4.5
v 2.5 25 -3.5
v 2.5 25 -4.5
v 3.5 15 1.5
v 3.5 15 -3.5
v 3.5 17 0.5
v 3.5 17 -2.5
v 3.5 20 0.5
v 3.5 20 -2.5
v 3.5 21 1.5
v 3.5 21 -3.5
v 3.5 23 2.5
v 3.5 23 1.5
v 3.5 23 -3.5
v 3.5 23 -4.5
v 3.5 24 -2.5
v 3.5 24 -3.5
v 3.5 24 -4.5
v 3.5 25 2.5
v 3.5 25 1.5
v 3.5 25 -2.5
v 3.5 26 1.5
v 3.5 26 -0.5
v 3.5 26 -1.5
v 3.5 26 -3.5
v 3.5 28 -0.5
v 3.5 28 -1.5
v 4.5 17 0.5
v 4.5 17 -2.5
v 4.5 20 0.5
v 4.5 20 -2.5
v 4.5 21 1.5
v 4.5 21 -4.5
v 4.5 22 2.5
v 4.5 22 1.5
v 4.5 22 -3.5
v 4.5 23 2.5
v 4.5 23 1.5
v 4.5 23 -3.5
v 4.5 23 -4.5
v 4.5 24 1.5
v 4.5 24 -2.5
v 4.5 25 1.5
v 4.5 25 -2.5
v 5.5 22 1.5
v 5.5 22 -3.5
v 5.5 24 1.5
v 5.5 24 -3.5
v -1.5 17 3.5
v -1.5 19 3.5
v 1.5 17 3.5
v 1.5 19 3.5
v -2.5 18 2.5
v -2.5 20 2.5
v -1.5 18 2.5
v -1.5 19 2.5
v -1.5 20 2.5
v -1.5 23 2.5
v -1.5 25 2.5
v 0.5 22 2.5
v 0.5 23 2.5
v 1.5 18 2.5
v 1.5 19 2.5
v 1.5 20 2.5
v 2.5 18 2.5
v 2.5 20 2.5
v 3.5 23 2.5
v 3.5 25 2.5
v 4.5 22 2.5
v 4.5 23 2.5
v -3.5 15 1.5
v -3.5 22 1.5
v -3.5 23 1.5
v -2.5 17 1.5
v -2.5 18 1.5
v -2.5 20 1.5
v -2.5 21 1.5
v -2.5 23 1.5
v -2.5 24 1.5
v -2.5 25 1.5
v -1.5 17 1.5
v -1.5 18 1.5
v -1.5 20 1.5
v -1.5 21 1.5
v -1.5 23 1.5
v -1.5 24 1.5
v -1.5 25 1.5
v -1.5 26 1.5
v 0.5 22 1.5
v 0.5 23 1.5
v 1.5 17 1.5
v 1.5 18 1.5
v 1.5 20 1.5
v 1.5 21 1.5
v 2.5 17 1.5
v 2.5 18 1.5
v 2.5 20 1.5
v 2.5 21 1.5
v 3.5 15 1.5
v 3.5 21 1.5
v 3.5 22 1.5
v 3.5 23 1.5
v 3.5 25 1.5
v 3.5 26 1.5
v 4.5 21 1.5
v 4.5 22 1.5
v 4.5 23 1.5
v 4.5 24 1.5
v 4.5 25 1.5
v 5.5 22 1.5
v 5.5 24 1.5
v -4.5 17 0.5
v -4.5 20 0.5
v -3.5 17 0.5
v -3.5 20 0.5
v -3.5 24 0.5
v -3.5 25 0.5
v -2.5 7 0.5
v -2.5 9 0.5
v -2.5 10 0.5
v -2.5 11 0.5
v -2.5 12 0.5
v -2.5 13 0.5
v -2.5 14 0.5
v -2.5 15 0.5
v -2.5 24 0.5
v -2.5 25 0.5
v -1.5 9 0.5
v -1.5 10 0.5
v -1.5 11 0.5
v -1.5 12 0.5
v -1.5 13 0.5
v -1.5 14 0.5
v -0.5 9 0.5
v -0.5 10 0.5
v -0.5 11 0.5
v -0.5 12 0.5
v -0.5 13 0.5
v -0.5 14 0.5
v 0.5 9 0.5
v 0.5 10 0.5
v 0.5 11 0.5
v 0.5 12 0.5
v 0.5 13 0.5
v 0.5 14 0.5
v 1.5 9 0.5
v 1.5 10 0.5
v 1.5 11 0.5
v 1.5 12 0.5
v 1.5 13 0.5
v 1.5 14 0.5
v 2.5 7 0.5
v 2.5 9 0.5
v 2.5 10 0.5
v 2.5 11 0.5
v 2.5 12 0.5
v 2.5 13 0.5
v 2.5 14 0.5
v 2.5 15 0.5
v 3.5 17 0.5
v 3.5 20 0.5
v 4.5 17 0.5
v 4.5 20 0.5
v 2.5 26 -0.5
v 2.5 28 -0.5
v 3.5 26 -0.5
v 3.5 28 -0.5
v 2.5 26 -1.5
v 2.5 28 -1.5
v 3.5 26 -1.5
v 3.5 28 -1.5
v -4.5 17 -2.5
v -4.5 20 -2.5
v -3.5 17 -2.5
v -3.5 20 -2.5
v -3.5 24 -2.5
v -3.5 25 -2.5
v -2.5 7 -2.5
v -2.5 9 -2.5
v -2.5 10 -2.5
v -2.5 11 -2.5
v -2.5 12 -2.5
v -2.5 13 -2.5
v -2.5 14 -2.5
v -2.5 15 -2.5
v -2.5 24 -2.5
v -2.5 25 -2.5
v -1.5 9 -2.5
v -1.5 10 -2.5
v -1.5 11 -2.5
v -1.5 12 -2.5
v -1.5 13 -2.5
v -1.5 14 -2.5
v -1.5 25 -2.5
v -1.5 26 -2.5
v -0.5 9 -2.5
v -0.5 10 -2.5
v -0.5 11 -2.5
v -0.5 12 -2.5
v -0.5 13 -2.5
v -0.5 14 -2.5
v -0.5 25 -2.5
v -0.5 26 -2.5
v 0.5 9 -2.5
v 0.5 10 -2.5
v 0.5 11 -2.5
v 0.5 12 -2.5
v 0.5 13 -2.5
v 0.5 14 -2.5
v 1.5 9 -2.5
v 1.5 10 -2.5
v 1.5 11 -2.5
v 1.5 12 -2.5
v 1.5 13 -2.5
v 1.5 14 -2.5
v 2.5 7 -2.5
v 2.5 9 -2.5
v 2.5 10 -2.5
v 2.5 11 -2.5
v 2.5 12 -2.5
v 2.5 13 -2.5
v 2.5 14 -2.5
v 2.5 15 -2.5
v 3.5 17 -2.5
v 3.5 20 -2.5
v 3.5 24 -2.5
v 3.5 25 -2.5
v 4.5 17 -2.5
v 4.5 20 -2.5
v 4.5 24 -2.5
v 4.5 25 -2.5
v -3.5 15 -3.5
v -3.5 22 -3.5
v -3.5 23 -3.5
v -2.5 23 -3.5
v -2.5 24 -3.5
v -2.5 25 -3.5
v -1.5 22 -3.5
v -1.5 23 -3.5
v -1.5 24 -3.5
v -1.5 25 -3.5
v -0.5 25 -3.5
v -0.5 26 -3.5
v 0.5 21 -3.5
v 0.5 22 -3.5
v 2.5 24 -3.5
v 2.5 25 -3.5
v 3.5 15 -3.5
v 3.5 21 -3.5
v 3.5 23 -3.5
v 3.5 24 -3.5
v 3.5 26 -3.5
v 4.5 22 -3.5
v 4.5 23 -3.5
v 5.5 22 -3.5
v 5.5 24 -3.5
v -2.5 23 -4.5
v -2.5 24 -4.5
v -1.5 22 -4.5
v -1.5 23 -4.5
v -1.5 24 -4.5
v -1.5 25 -4.5
v 0.5 21 -4.5
v 0.5 22 -4.5
v 2.5 24 -4.5
v 2.5 25 -4.5
v 3.5 23 -4.5
v 3.5 24 -4.5
v 4.5 21 -4.5
v 4.5 23 -4.5
v -2.5 7 0.5
v 2.5 7 0.5
v -2.5 7 -2.5
v 2.5 7 -2.5
v -3.5 15 1.5
v 3.5 15 1.5
v -2.5 15 0.5
v 2.5 15 0.5
v -2.5 15 -2.5
v 2.5 15 -2.5
v -3.5 15 -3.5
v 3.5 15 -3.5
v -1.5 17 3.5
v 1.5 17 3.5
v -1.5 17 1.5
v 1.5 17 1.5
v -4.5 17 0.5
v -3.5 17 0.5
v 3.5 17 0.5
v 4.5 17 0.5
v -4.5 17 -2.5
v -3.5 17 -2.5
v 3.5 17 -2.5
v 4.5 17 -2.5
v -2.5 18 2.5
v -1.5 18 2.5
v 1.5 18 2.5
v 2.5 18 2.5
v -2.5 18 1.5
v -1.5 18 1.5
v 1.5 18 1.5
v 2.5 18 1.5
v 3.5 21 1.5
v 4.5 21 1.5
v 0.5 21 -3.5
v 3.5 21 -3.5
v 0.5 21 -4.5
v 4.5 21 -4.5
v 0.5 22 2.5
v 4.5 22 2.5
v 0.5 22 1.5
v 3.5 22 1.5
v 4.5 22 1.5
v 5.5 22 1.5
v -1.5 22 -3.5
v 0.5 22 -3.5
v 4.5 22 -3.5
v 5.5 22 -3.5
v -1.5 22 -4.5
v 0.5 22 -4.5
v -1.5 23 2.5
v 0.5 23 2.5
v -1.5 23 1.5
v 0.5 23 1.5
v -2.5 23 -3.5
v -1.5 23 -3.5
v -2.5 23 -4.5
v -1.5 23 -4.5
v -3.5 24 0.5
v -2.5 24 0.5
v -3.5 24 -2.5
v -2.5 24 -2.5
v -1.5 19 3.5
v 1.5 19 3.5
v -1.5 19 2.5
v 1.5 19 2.5
v -2.5 20 2.5
v -1.5 20 2.5
v 1.5 20 2.5
v 2.5 20 2.5
v -2.5 20 1.5
v -1.5 20 1.5
v 1.5 20 1.5
v 2.5 20 1.5
v -4.5 20 0.5
v -3.5 20 0.5
v 3.5 20 0.5
v 4.5 20 0.5
v -4.5 20 -2.5
v -3.5 20 -2.5
v 3.5 20 -2.5
v 4.5 20 -2.5
v 3.5 23 2.5
v 4.5 23 2.5
v -3.5 23 1.5
v -2.5 23 1.5
v 3.5 23 1.5
v 4.5 23 1.5
v -3.5 23 -3.5
v -2.5 23 -3.5
v 3.5 23 -3.5
v 4.5 23 -3.5
v 3.5 23 -4.5
v 4.5 23 -4.5
v 4.5 24 1.5
v 5.5 24 1.5
v 3.5 24 -2.5
v 4.5 24 -2.5
v -2.5 24 -3.5
v -1.5 24 -3.5
v 2.5 24 -3.5
v 3.5 24 -3.5
v 5.5 24 -3.5
v -2.5 24 -4.5
v -1.5 24 -4.5
v 2.5 24 -4.5
v 3.5 24 -4.5
v -1.5 25 2.5
v 3.5 25 2.5
v -2.5 25 1.5
v -1.5 25 1.5
v 3.5 25 1.5
v 4.5 25 1.5
v -3.5 25 0.5
v -2.5 25 0.5
v -3.5 25 -2.5
v -2.5 25 -2.5
v -1.5 25 -2.5
v -0.5 25 -2.5
v 3.5 25 -2.5
v 4.5 25 -2.5
v -2.5 25 -3.5
v -1.5 25 -3.5
v -0.5 25 -3.5
v 2.5 25 -3.5
v -1.5 25 -4.5
v 2.5 25 -4.5
v -1.5 26 1.5
v 3.5 26 1.5
v 2.5 26 -0.5
v 3.5 26 -0.5
v 2.5 26 -1.5
v 3.5 26 -1.5
v -1.5 26 -2.5
v -0.5 26 -2.5
v -0.5 26 -3.5
v 3.5 26 -3.5
v 2.5 28 -0.5
v 3.5 28 -0.5
v 2.5 28 -1.5
v 3.5 28 -1.5

# faces
f 3/8/1 2/8/1 1/8/1
f 4/8/1 2/8/1 3/8/1
f 7/8/1 6/8/1 5/8/1
f 8/8/1 6/8/1 7/8/1
f 9/8/1 7/8/1 5/8/1
f 10/8/1 6/8/1 8/8/1
f 11/8/1 9/8/1 5/8/1
f 11/8/1 10/8/1 9/8/1
f 12/8/1 6/8/1 10/8/1
f 12/8/1 10/8/1 11/8/1
f 13/3/1 12/3/1 11/3/1
f 14/3/1 12/3/1 13/3/1
f 17/9/1 16/9/1 15/9/1
f 18/9/1 16/9/1 17/9/1
f 21/9/1 20/9/1 19/9/1
f 22/9/1 20/9/1 21/9/1
f 23/8/1 22/8/1 21/8/1
f 24/8/1 22/8/1 23/8/1
f 25/9/1 24/9/1 23/9/1
f 26/9/1 24/9/1 25/9/1
f 27/8/1 26/8/1 25/8/1
f 28/8/1 26/8/1 27/8/1
f 29/9/1 28/9/1 27/9/1
f 30/9/1 28/9/1 29/9/1
f 31/8/1 30/8/1 29/8/1
f 32/8/1 30/8/1 31/8/1
f 33/9/1 32/9/1 31/9/1
f 34/9/1 32/9/1 33/9/1
f 37/5/1 36/5/1 35/5/1
f 38/5/1 36/5/1 37/5/1
f 42/3/1 40/3/1 39/3/1
f 43/3/1 40/3/1 42/3/1
f 44/3/1 40/3/1 43/3/1
f 45/9/1 41/9/1 40/9/1
f 45/3/1 40/3/1 44/3/1
f 46/9/1 41/9/1 45/9/1
f 47/9/1 43/9/1 42/9/1
f 48/9/1 43/9/1 47/9/1
f 49/9/1 45/9/1 44/9/1
f 50/9/1 45/9/1 49/9/1
f 53/8/1 52/8/1 51/8/1
f 54/8/1 52/8/1 53/8/1
f 55/8/1 53/8/1 51/8/1
f 56/8/1 53/8/1 55/8/1
f 61/9/1 58/9/1 57/9/1
f 62/9/1 58/9/1 61/9/1
f 63/9/1 60/9/1 59/9/1
f 66/9/1 63/9/1 59/9/1
f 67/9/1 63/9/1 66/9/1
f 69/9/1 65/9/1 64/9/1
f 70/9/1 65/9/1 69/9/1
f 71/9/1 68/9/1 67/9/1
f 72/9/1 68/9/1 71/9/1
f 75/9/1 74/9/1 73/9/1
f 76/9/1 74/9/1 75/9/1
f 81/9/1 78/9/1 77/9/1
f 82/9/1 78/9/1 81/9/1
f 83/9/1 80/9/1 79/9/1
f 84/9/1 80/9/1 83/9/1
f 87/9/1 86/9/1 85/9/1
f 88/9/1 86/9/1 87/9/1
f 89/8/2 90/8/2 91/8/2
f 91/8/2 90/8/2 92/8/2
f 89/8/2 91/8/2 93/8/2
f 93/8/2 91/8/2 94/8/2
f 95/9/2 96/9/2 97/9/2
f 97/9/2 96/9/2 98/9/2
f 97/8/2 98/8/2 99/8/2
f 99/8/2 98/8/2 100/8/2
f 99/9/2 100/9/2 101/9/2
f 101/9/2 100/9/2 102/9/2
f 101/8/2 102/8/2 103/8/2
f 103/8/2 102/8/2 104/8/2
f 103/9/2 104/9/2 105/9/2
f 105/9/2 104/9/2 106/9/2
f 105/8/2 106/8/2 107/8/2
f 107/8/2 106/8/2 108/8/2
f 107/9/2 108/9/2 109/9/2
f 109/9/2 108/9/2 110/9/2
f 111/5/2 112/5/2 113/5/2
f 113/5/2 112/5/2 114/5/2
f 115/9/2 116/9/2 117/9/2
f 117/9/2 116/9/2 118/9/2
f 119/8/2 120/8/2 121/8/2
f 121/8/2 120/8/2 122/8/2
f 119/8/2 121/8/2 123/8/2
f 122/8/2 120/8/2 124/8/2
f 119/8/2 123/8/2 125/8/2
f 123/8/2 124/8/2 125/8/2
f 124/8/2 120/8/2 126/8/2
f 125/8/2 124/8/2 126/8/2
f 129/9/2 130/9/2 132/9/2
f 132/9/2 130/9/2 133/9/2
f 127/9/2 128/9/2 134/9/2
f 134/9/2 128/9/2 135/9/2
f 131/9/2 132/9/2 136/9/2
f 135/9/2 136/9/2 137/9/2
f 137/9/2 136/9/2 138/9/2
f 138/9/2 136/9/2 139/9/2
f 136/9/2 132/9/2 140/9/2
f 139/9/2 136/9/2 140/9/2
f 138/9/2 139/9/2 141/9/2
f 141/9/2 139/9/2 142/9/2
f 143/8/2 144/8/2 145/8/2
f 145/8/2 144/8/2 146/8/2
f 147/9/2 148/9/2 150/9/2
f 150/9/2 148/9/2 151/9/2
f 149/9/2 150/9/2 152/9/2
f 152/9/2 150/9/2 153/9/2
f 151/9/2 148/9/2 154/9/2
f 154/9/2 148/9/2 155/9/2
f 156/9/2 157/9/2 158/9/2
f 158/9/2 157/9/2 159/9/2
f 160/9/2 161/9/2 162/9/2
f 162/9/2 161/9/2 163/9/2
f 166/8/3 165/8/3 164/8/3
f 167/8/3 165/8/3 166/8/3
f 170/5/3 169/5/3 168/5/3
f 171/5/3 169/5/3 170/5/3
f 172/5/3 169/5/3 171/5/3
f 176/9/3 174/9/3 173/9/3
f 178/8/3 172/8/3 171/8/3
f 179/8/3 172/8/3 178/8/3
f 180/5/3 178/5/3 177/5/3
f 180/5/3 179/5/3 178/5/3
f 181/5/3 179/5/3 180/5/3
f 182/9/3 176/9/3 175/9/3
f 182/9/3 174/9/3 176/9/3
f 183/9/3 174/9/3 182/9/3
f 184/9/3 182/9/3 175/9/3
f 185/9/3 182/9/3 184/9/3
f 189/8/3 187/8/3 186/8/3
f 190/8/3 187/8/3 189/8/3
f 191/8/3 187/8/3 190/8/3
f 192/8/3 187/8/3 191/8/3
f 193/3/3 188/3/3 187/3/3
f 196/8/3 189/8/3 186/8/3
f 196/9/3 190/9/3 189/9/3
f 197/9/3 190/9/3 196/9/3
f 198/9/3 192/9/3 191/9/3
f 199/8/3 187/8/3 192/8/3
f 199/9/3 192/9/3 198/9/3
f 200/3/3 194/3/3 193/3/3
f 200/3/3 193/3/3 187/3/3
f 201/9/3 195/9/3 194/9/3
f 201/3/3 194/3/3 200/3/3
f 202/9/3 195/9/3 201/9/3
f 204/3/3 200/3/3 187/3/3
f 204/8/3 187/8/3 199/8/3
f 204/8/3 199/8/3 198/8/3
f 205/3/3 200/3/3 204/3/3
f 206/8/3 196/8/3 186/8/3
f 208/8/3 204/8/3 198/8/3
f 209/8/3 204/8/3 208/8/3
f 210/9/3 207/9/3 206/9/3
f 210/8/3 206/8/3 186/8/3
f 211/9/3 207/9/3 210/9/3
f 212/9/3 209/9/3 208/9/3
f 213/8/3 204/8/3 209/8/3
f 213/9/3 209/9/3 212/9/3
f 214/8/3 212/8/3 211/8/3
f 214/8/3 211/8/3 210/8/3
f 214/8/3 213/8/3 212/8/3
f 214/8/3 210/8/3 186/8/3
f 215/8/3 204/8/3 213/8/3
f 215/8/3 213/8/3 214/8/3
f 216/8/3 204/8/3 215/8/3
f 218/9/3 203/9/3 202/9/3
f 219/9/3 203/9/3 218/9/3
f 220/9/3 216/9/3 215/9/3
f 221/9/3 216/9/3 220/9/3
f 222/9/3 218/9/3 217/9/3
f 223/9/3 218/9/3 222/9/3
f 224/9/3 218/9/3 223/9/3
f 225/9/3 222/9/3 221/9/3
f 225/9/3 223/9/3 222/9/3
f 226/9/3 223/9/3 225/9/3
f 229/8/3 228/8/3 227/8/3
f 230/8/3 228/8/3 229/8/3
f 241/9/3 232/9/3 231/9/3
f 242/9/3 232/9/3 241/9/3
f 243/9/3 234/9/3 233/9/3
f 243/8/3 235/8/3 234/8/3
f 244/9/3 236/9/3 235/9/3
f 244/8/3 235/8/3 243/8/3
f 245/8/3 237/8/3 236/8/3
f 245/9/3 236/9/3 244/9/3
f 246/9/3 238/9/3 237/9/3
f 246/8/3 237/8/3 245/8/3
f 247/8/3 239/8/3 238/8/3
f 247/9/3 238/9/3 246/9/3
f 248/9/3 240/9/3 239/9/3
f 248/8/3 239/8/3 247/8/3
f 249/9/3 247/9/3 246/9/3
f 249/9/3 243/9/3 233/9/3
f 249/9/3 248/9/3 247/9/3
f 249/9/3 246/9/3 245/9/3
f 249/9/3 245/9/3 244/9/3
f 249/9/3 244/9/3 243/9/3
f 250/9/3 248/9/3 249/9/3
f 251/9/3 248/9/3 250/9/3
f 252/9/3 248/9/3 251/9/3
f 253/9/3 248/9/3 252/9/3
f 254/9/3 240/9/3 248/9/3
f 254/9/3 248/9/3 253/9/3
f 255/9/3 249/9/3 233/9/3
f 255/8/3 250/8/3 249/8/3
f 256/9/3 251/9/3 250/9/3
f 256/8/3 250/8/3 255/8/3
f 257/8/3 252/8/3 251/8/3
f 257/9/3 251/9/3 256/9/3
f 258/9/3 253/9/3 252/9/3
f 258/8/3 252/8/3 257/8/3
f 259/8/3 254/8/3 253/8/3
f 259/9/3 253/9/3 258/9/3
f 260/9/3 240/9/3 254/9/3
f 260/8/3 254/8/3 259/8/3
f 261/9/3 257/9/3 256/9/3
f 261/9/3 259/9/3 258/9/3
f 261/9/3 260/9/3 259/9/3
f 261/9/3 256/9/3 255/9/3
f 261/9/3 255/9/3 233/9/3
f 261/9/3 258/9/3 257/9/3
f 262/9/3 260/9/3 261/9/3
f 263/9/3 260/9/3 262/9/3
f 264/9/3 260/9/3 263/9/3
f 265/9/3 260/9/3 264/9/3
f 266/9/3 240/9/3 260/9/3
f 266/9/3 260/9/3 265/9/3
f 267/9/3 261/9/3 233/9/3
f 268/8/3 262/8/3 261/8/3
f 268/9/3 261/9/3 267/9/3
f 269/9/3 263/9/3 262/9/3
f 269/8/3 262/8/3 268/8/3
f 270/8/3 264/8/3 263/8/3
f 270/9/3 263/9/3 269/9/3
f 271/9/3 265/9/3 264/9/3
f 271/8/3 264/8/3 270/8/3
f 272/8/3 266/8/3 265/8/3
f 272/9/3 265/9/3 271/9/3
f 273/9/3 240/9/3 266/9/3
f 273/8/3 266/8/3 272/8/3
f 274/9/3 240/9/3 273/9/3
f 277/8/3 276/8/3 275/8/3
f 278/8/3 276/8/3 277/8/3
f 281/9/3 280/9/3 279/9/3
f 282/9/3 280/9/3 281/9/3
f 283/9/4 284/9/4 285/9/4
f 285/9/4 284/9/4 286/9/4
f 287/8/4 288/8/4 289/8/4
f 289/8/4 288/8/4 290/8/4
f 291/9/4 292/9/4 301/9/4
f 301/9/4 292/9/4 302/9/4
f 293/9/4 294/9/4 303/9/4
f 294/8/4 295/8/4 303/8/4
f 295/9/4 296/9/4 304/9/4
f 303/8/4 295/8/4 304/8/4
f 296/8/4 297/8/4 305/8/4
f 304/9/4 296/9/4 305/9/4
f 297/9/4 298/9/4 306/9/4
f 305/8/4 297/8/4 306/8/4
f 298/8/4 299/8/4 307/8/4
f 306/9/4 298/9/4 307/9/4
f 299/9/4 300/9/4 308/9/4
f 307/8/4 299/8/4 308/8/4
f 306/9/4 307/9/4 311/9/4
f 293/9/4 303/9/4 311/9/4
f 307/9/4 308/9/4 311/9/4
f 305/9/4 306/9/4 311/9/4
f 304/9/4 305/9/4 311/9/4
f 303/9/4 304/9/4 311/9/4
f 311/9/4 308/9/4 312/9/4
f 312/9/4 308/9/4 313/9/4
f 313/9/4 308/9/4 314/9/4
f 314/9/4 308/9/4 315/9/4
f 308/9/4 300/9/4 316/9/4
f 315/9/4 308/9/4 316/9/4
f 309/9/4 310/9/4 317/9/4
f 317/9/4 310/9/4 318/9/4
f 293/9/4 311/9/4 319/9/4
f 311/8/4 312/8/4 319/8/4
f 312/9/4 313/9/4 320/9/4
f 319/8/4 312/8/4 320/8/4
f 313/8/4 314/8/4 321/8/4
f 320/9/4 313/9/4 321/9/4
f 314/9/4 315/9/4 322/9/4
f 321/8/4 314/8/4 322/8/4
f 315/8/4 316/8/4 323/8/4
f 322/9/4 315/9/4 323/9/4
f 316/9/4 300/9/4 324/9/4
f 323/8/4 316/8/4 324/8/4
f 322/9/4 323/9/4 325/9/4
f 320/9/4 321/9/4 325/9/4
f 323/9/4 324/9/4 325/9/4
f 321/9/4 322/9/4 325/9/4
f 319/9/4 320/9/4 325/9/4
f 293/9/4 319/9/4 325/9/4
f 325/9/4 324/9/4 326/9/4
f 326/9/4 324/9/4 327/9/4
f 327/9/4 324/9/4 328/9/4
f 328/9/4 324/9/4 329/9/4
f 324/9/4 300/9/4 330/9/4
f 329/9/4 324/9/4 330/9/4
f 293/9/4 325/9/4 331/9/4
f 325/8/4 326/8/4 332/8/4
f 331/9/4 325/9/4 332/9/4
f 326/9/4 327/9/4 333/9/4
f 332/8/4 326/8/4 333/8/4
f 327/8/4 328/8/4 334/8/4
f 333/9/4 327/9/4 334/9/4
f 328/9/4 329/9/4 335/9/4
f 334/8/4 328/8/4 335/8/4
f 329/8/4 330/8/4 336/8/4
f 335/9/4 329/9/4 336/9/4
f 330/9/4 300/9/4 337/9/4
f 336/8/4 330/8/4 337/8/4
f 337/9/4 300/9/4 338/9/4
f 339/8/4 340/8/4 343/8/4
f 343/8/4 340/8/4 344/8/4
f 341/9/4 342/9/4 345/9/4
f 345/9/4 342/9/4 346/9/4
f 348/3/4 349/3/4 350/3/4
f 347/8/4 348/8/4 353/8/4
f 348/3/4 350/3/4 353/3/4
f 353/3/4 350/3/4 354/3/4
f 351/9/4 352/9/4 355/9/4
f 355/9/4 352/9/4 356/9/4
f 347/8/4 353/8/4 359/8/4
f 359/8/4 353/8/4 360/8/4
f 357/9/4 358/9/4 362/9/4
f 347/8/4 359/8/4 363/8/4
f 363/8/4 359/8/4 364/8/4
f 361/9/4 362/9/4 366/9/4
f 362/9/4 358/9/4 367/9/4
f 366/9/4 362/9/4 367/9/4
f 365/9/4 366/9/4 369/9/4
f 368/9/4 369/9/4 370/9/4
f 369/9/4 366/9/4 371/9/4
f 370/9/4 369/9/4 371/9/4
f 372/9/4 373/9/4 375/9/4
f 375/9/4 373/9/4 376/9/4
f 374/9/4 375/9/4 379/9/4
f 376/9/4 377/9/4 379/9/4
f 375/9/4 376/9/4 379/9/4
f 379/9/4 377/9/4 380/9/4
f 378/9/4 379/9/4 380/9/4
f 380/9/4 377/9/4 381/9/4
f 378/9/4 380/9/4 382/9/4
f 382/9/4 380/9/4 383/9/4
f 378/9/4 382/9/4 384/9/4
f 384/9/4 382/9/4 385/9/4
f 388/9/5 387/9/5 386/9/5
f 389/9/5 387/9/5 388/9/5
f 392/8/5 391/8/5 390/8/5
f 393/8/5 391/8/5 392/8/5
f 394/8/5 392/8/5 390/8/5
f 395/8/5 391/8/5 393/8/5
f 396/8/5 394/8/5 390/8/5
f 396/8/5 395/8/5 394/8/5
f 397/8/5 391/8/5 395/8/5
f 397/8/5 395/8/5 396/8/5
f 400/8/5 399/8/5 398/8/5
f 401/8/5 399/8/5 400/8/5
f 406/8/5 403/8/5 402/8/5
f 407/8/5 403/8/5 406/8/5
f 408/8/5 405/8/5 404/8/5
f 409/8/5 405/8/5 408/8/5
f 414/5/5 411/5/5 410/5/5
f 415/5/5 411/5/5 414/5/5
f 416/5/5 413/5/5 412/5/5
f 417/5/5 413/5/5 416/5/5
f 421/9/5 419/9/5 418/9/5
f 422/9/5 421/9/5 420/9/5
f 423/9/5 419/9/5 421/9/5
f 423/9/5 421/9/5 422/9/5
f 426/9/5 425/9/5 424/9/5
f 427/9/5 425/9/5 426/9/5
f 428/9/5 425/9/5 427/9/5
f 432/9/5 429/9/5 428/9/5
f 433/9/5 429/9/5 432/9/5
f 434/9/5 431/9/5 430/9/5
f 435/9/5 431/9/5 434/9/5
f 438/9/5 437/9/5 436/9/5
f 439/9/5 437/9/5 438/9/5
f 442/9/5 441/9/5 440/9/5
f 443/9/5 441/9/5 442/9/5
f 446/9/5 445/9/5 444/9/5
f 447/9/5 445/9/5 446/9/5
f 448/8/6 449/8/6 450/8/6
f 450/8/6 449/8/6 451/8/6
f 452/5/6 453/5/6 456/5/6
f 453/8/6 454/8/6 457/8/6
f 456/5/6 453/5/6 457/5/6
f 454/5/6 455/5/6 458/5/6
f 457/8/6 454/8/6 458/8/6
f 458/5/6 455/5/6 459/5/6
f 460/8/6 461/8/6 464/8/6
f 464/8/6 461/8/6 465/8/6
f 462/8/6 463/8/6 466/8/6
f 466/8/6 463/8/6 467/8/6
f 468/9/6 469/9/6 472/9/6
f 472/9/6 469/9/6 473/9/6
f 470/3/6 471/3/6 474/3/6
f 474/3/6 471/3/6 475/3/6
f 476/9/6 477/9/6 478/9/6
f 478/9/6 477/9/6 479/9/6
f 480/9/6 481/9/6 483/9/6
f 482/9/6 483/9/6 487/9/6
f 483/9/6 481/9/6 488/9/6
f 487/9/6 483/9/6 488/9/6
f 484/9/6 485/9/6 489/9/6
f 489/9/6 485/9/6 490/9/6
f 486/9/6 487/9/6 491/9/6
f 491/9/6 487/9/6 492/9/6
f 493/9/6 494/9/6 496/9/6
f 496/9/6 494/9/6 497/9/6
f 495/9/6 496/9/6 500/9/6
f 499/9/6 500/9/6 501/9/6
f 500/9/6 496/9/6 502/9/6
f 501/9/6 500/9/6 502/9/6
f 502/9/6 496/9/6 503/9/6
f 497/9/6 498/9/6 505/9/6
f 505/9/6 498/9/6 506/9/6
f 503/9/6 504/9/6 507/9/6
f 502/9/6 503/9/6 507/9/6
f 507/9/6 504/9/6 508/9/6
f 508/9/6 504/9/6 509/9/6
f 509/9/6 510/9/6 511/9/6
f 508/9/6 509/9/6 511/9/6
f 511/9/6 510/9/6 512/9/6
f 513/9/6 514/9/6 515/9/6
f 515/9/6 514/9/6 516/9/6
f 513/9/6 515/9/6 517/9/6
f 513/9/6 517/9/6 519/9/6
f 517/9/6 518/9/6 519/9/6
f 519/9/6 518/9/6 520/9/6
f 520/9/6 518/9/6 521/9/6
f 521/9/6 518/9/6 522/9/6
f 523/9/6 524/9/6 525/9/6
f 525/9/6 524/9/6 526/9/6
