# MagicaVoxel @ Ephtracy

# group
g gglive_bin

# material
mtllib gglive_bin.mtl
usemtl palette

# normals
vn -1 0 0
vn 1 0 0
vn 0 0 1
vn 0 0 -1
vn 0 -1 0
vn 0 1 0

# texcoords
vt 0.0214844 0.5
vt 0.822266 0.5
vt 0.841797 0.5
vt 0.919922 0.5
vt 0.958984 0.5

# verts
v -17.5 9 5.5
v -17.5 9 -2.5
v -17.5 10 5.5
v -17.5 10 -2.5
v -16.5 0 4.5
v -16.5 0 -1.5
v -16.5 9 4.5
v -16.5 9 -1.5
v -16.5 10 4.5
v -16.5 10 -1.5
v -16.5 12 4.5
v -16.5 12 3.5
v -16.5 15 3.5
v -16.5 15 -1.5
v -8.5 7 3.5
v -8.5 7 0.5
v -8.5 11 4.5
v -8.5 11 3.5
v -8.5 12 4.5
v -8.5 12 3.5
v -8.5 14 3.5
v -8.5 14 0.5
v -5.5 8 -1.5
v -5.5 8 -2.5
v -5.5 9 5.5
v -5.5 9 -1.5
v -5.5 10 5.5
v -5.5 10 -2.5
v -4.5 0 4.5
v -4.5 0 -1.5
v -4.5 1 4.5
v -4.5 1 -1.5
v -4.5 8 -1.5
v -4.5 9 4.5
v -4.5 9 -1.5
v -4.5 10 4.5
v -4.5 10 -1.5
v -4.5 12 4.5
v -4.5 12 3.5
v -4.5 15 3.5
v -4.5 15 -1.5
v 3.5 7 3.5
v 3.5 7 -0.5
v 3.5 11 4.5
v 3.5 11 3.5
v 3.5 12 4.5
v 3.5 12 3.5
v 3.5 14 3.5
v 3.5 14 -0.5
v 6.5 9 5.5
v 6.5 9 -2.5
v 6.5 10 5.5
v 6.5 10 -2.5
v 7.5 0 4.5
v 7.5 0 -1.5
v 7.5 9 4.5
v 7.5 9 -1.5
v 7.5 10 4.5
v 7.5 10 -1.5
v 7.5 12 4.5
v 7.5 12 3.5
v 7.5 15 3.5
v 7.5 15 -1.5
v 15.5 7 3.5
v 15.5 7 0.5
v 15.5 9 3.5
v 15.5 10 3.5
v 15.5 11 4.5
v 15.5 11 3.5
v 15.5 12 4.5
v 15.5 12 3.5
v 15.5 14 3.5
v 15.5 14 0.5
v -15.5 7 3.5
v -15.5 7 0.5
v -15.5 11 4.5
v -15.5 11 3.5
v -15.5 12 4.5
v -15.5 12 3.5
v -15.5 14 3.5
v -15.5 14 0.5
v -7.5 0 4.5
v -7.5 0 -1.5
v -7.5 9 4.5
v -7.5 9 -1.5
v -7.5 10 4.5
v -7.5 10 -1.5
v -7.5 12 4.5
v -7.5 12 3.5
v -7.5 15 3.5
v -7.5 15 -1.5
v -6.5 9 5.5
v -6.5 9 -2.5
v -6.5 10 5.5
v -6.5 10 -2.5
v -3.5 7 3.5
v -3.5 7 -0.5
v -3.5 11 4.5
v -3.5 11 3.5
v -3.5 12 4.5
v -3.5 12 3.5
v -3.5 14 3.5
v -3.5 14 -0.5
v 4.5 0 4.5
v 4.5 0 -1.5
v 4.5 1 4.5
v 4.5 1 -1.5
v 4.5 8 -1.5
v 4.5 9 4.5
v 4.5 9 -1.5
v 4.5 10 4.5
v 4.5 10 -1.5
v 4.5 12 4.5
v 4.5 12 3.5
v 4.5 15 3.5
v 4.5 15 -1.5
v 5.5 8 -1.5
v 5.5 8 -2.5
v 5.5 9 5.5
v 5.5 9 -1.5
v 5.5 10 5.5
v 5.5 10 -2.5
v 8.5 7 3.5
v 8.5 7 0.5
v 8.5 9 3.5
v 8.5 10 3.5
v 8.5 11 4.5
v 8.5 11 3.5
v 8.5 12 4.5
v 8.5 12 3.5
v 8.5 14 3.5
v 8.5 14 0.5
v 16.5 0 4.5
v 16.5 0 -1.5
v 16.5 9 4.5
v 16.5 9 -1.5
v 16.5 10 4.5
v 16.5 10 -1.5
v 16.5 12 4.5
v 16.5 12 3.5
v 16.5 15 3.5
v 16.5 15 -1.5
v 17.5 9 5.5
v 17.5 9 -2.5
v 17.5 10 5.5
v 17.5 10 -2.5
v -17.5 9 5.5
v -17.5 10 5.5
v -6.5 9 5.5
v -6.5 10 5.5
v -5.5 9 5.5
v -5.5 10 5.5
v 5.5 9 5.5
v 5.5 10 5.5
v 6.5 9 5.5
v 6.5 10 5.5
v 17.5 9 5.5
v 17.5 10 5.5
v -16.5 0 4.5
v -16.5 9 4.5
v -16.5 10 4.5
v -16.5 12 4.5
v -15.5 4 4.5
v -15.5 5 4.5
v -15.5 11 4.5
v -15.5 12 4.5
v -14.5 4 4.5
v -14.5 5 4.5
v -14.5 6 4.5
v -13.5 3 4.5
v -13.5 4 4.5
v -13.5 5 4.5
v -13.5 6 4.5
v -13.5 7 4.5
v -12.5 6 4.5
v -12.5 7 4.5
v -11.5 6 4.5
v -11.5 7 4.5
v -10.5 3 4.5
v -10.5 4 4.5
v -10.5 5 4.5
v -10.5 6 4.5
v -10.5 7 4.5
v -9.5 4 4.5
v -9.5 5 4.5
v -9.5 6 4.5
v -8.5 4 4.5
v -8.5 5 4.5
v -8.5 11 4.5
v -8.5 12 4.5
v -7.5 0 4.5
v -7.5 9 4.5
v -7.5 10 4.5
v -7.5 12 4.5
v -4.5 0 4.5
v -4.5 1 4.5
v -4.5 9 4.5
v -4.5 10 4.5
v -4.5 12 4.5
v -3.5 4 4.5
v -3.5 5 4.5
v -3.5 11 4.5
v -3.5 12 4.5
v -2.5 4 4.5
v -2.5 5 4.5
v -2.5 6 4.5
v -1.5 3 4.5
v -1.5 4 4.5
v -1.5 5 4.5
v -1.5 6 4.5
v -1.5 7 4.5
v -0.5 6 4.5
v -0.5 7 4.5
v 0.5 6 4.5
v 0.5 7 4.5
v 1.5 3 4.5
v 1.5 4 4.5
v 1.5 5 4.5
v 1.5 6 4.5
v 1.5 7 4.5
v 2.5 4 4.5
v 2.5 5 4.5
v 2.5 6 4.5
v 3.5 4 4.5
v 3.5 5 4.5
v 3.5 11 4.5
v 3.5 12 4.5
v 4.5 0 4.5
v 4.5 1 4.5
v 4.5 9 4.5
v 4.5 10 4.5
v 4.5 12 4.5
v 7.5 0 4.5
v 7.5 9 4.5
v 7.5 10 4.5
v 7.5 12 4.5
v 8.5 4 4.5
v 8.5 5 4.5
v 8.5 11 4.5
v 8.5 12 4.5
v 9.5 4 4.5
v 9.5 5 4.5
v 9.5 6 4.5
v 10.5 3 4.5
v 10.5 4 4.5
v 10.5 5 4.5
v 10.5 6 4.5
v 10.5 7 4.5
v 11.5 6 4.5
v 11.5 7 4.5
v 12.5 6 4.5
v 12.5 7 4.5
v 13.5 3 4.5
v 13.5 4 4.5
v 13.5 5 4.5
v 13.5 6 4.5
v 13.5 7 4.5
v 14.5 4 4.5
v 14.5 5 4.5
v 14.5 6 4.5
v 15.5 4 4.5
v 15.5 5 4.5
v 15.5 11 4.5
v 15.5 12 4.5
v 16.5 0 4.5
v 16.5 9 4.5
v 16.5 10 4.5
v 16.5 12 4.5
v -16.5 12 3.5
v -16.5 15 3.5
v -15.5 12 3.5
v -15.5 14 3.5
v -8.5 12 3.5
v -8.5 14 3.5
v -7.5 12 3.5
v -7.5 15 3.5
v -4.5 12 3.5
v -4.5 15 3.5
v -3.5 12 3.5
v -3.5 14 3.5
v 3.5 12 3.5
v 3.5 14 3.5
v 4.5 12 3.5
v 4.5 15 3.5
v 7.5 12 3.5
v 7.5 15 3.5
v 8.5 12 3.5
v 8.5 14 3.5
v 15.5 12 3.5
v 15.5 14 3.5
v 16.5 12 3.5
v 16.5 15 3.5
v -15.5 7 0.5
v -15.5 14 0.5
v -8.5 7 0.5
v -8.5 14 0.5
v 8.5 7 0.5
v 8.5 14 0.5
v 15.5 7 0.5
v 15.5 14 0.5
v -3.5 7 -0.5
v -3.5 14 -0.5
v 3.5 7 -0.5
v 3.5 14 -0.5
v -5.5 8 -1.5
v -5.5 9 -1.5
v -4.5 8 -1.5
v -4.5 9 -1.5
v 4.5 8 -1.5
v 4.5 9 -1.5
v 5.5 8 -1.5
v 5.5 9 -1.5
v -15.5 7 3.5
v -15.5 11 3.5
v -8.5 7 3.5
v -8.5 11 3.5
v -3.5 7 3.5
v -3.5 11 3.5
v 3.5 7 3.5
v 3.5 11 3.5
v 8.5 7 3.5
v 8.5 9 3.5
v 8.5 10 3.5
v 8.5 11 3.5
v 15.5 7 3.5
v 15.5 9 3.5
v 15.5 10 3.5
v 15.5 11 3.5
v -16.5 0 -1.5
v -16.5 9 -1.5
v -16.5 10 -1.5
v -16.5 15 -1.5
v -7.5 0 -1.5
v -7.5 9 -1.5
v -7.5 10 -1.5
v -7.5 15 -1.5
v -4.5 0 -1.5
v -4.5 1 -1.5
v -4.5 8 -1.5
v -4.5 10 -1.5
v -4.5 15 -1.5
v 4.5 0 -1.5
v 4.5 1 -1.5
v 4.5 8 -1.5
v 4.5 10 -1.5
v 4.5 15 -1.5
v 7.5 0 -1.5
v 7.5 9 -1.5
v 7.5 10 -1.5
v 7.5 15 -1.5
v 16.5 0 -1.5
v 16.5 9 -1.5
v 16.5 10 -1.5
v 16.5 15 -1.5
v -17.5 9 -2.5
v -17.5 10 -2.5
v -6.5 9 -2.5
v -6.5 10 -2.5
v -5.5 8 -2.5
v -5.5 10 -2.5
v 5.5 8 -2.5
v 5.5 10 -2.5
v 6.5 9 -2.5
v 6.5 10 -2.5
v 17.5 9 -2.5
v 17.5 10 -2.5
v -16.5 0 4.5
v -7.5 0 4.5
v -4.5 0 4.5
v 4.5 0 4.5
v 7.5 0 4.5
v 16.5 0 4.5
v 8.5 0 3.5
v 15.5 0 3.5
v 8.5 0 -0.5
v 15.5 0 -0.5
v -16.5 0 -1.5
v -7.5 0 -1.5
v -4.5 0 -1.5
v 4.5 0 -1.5
v 7.5 0 -1.5
v 16.5 0 -1.5
v -5.5 8 -1.5
v -4.5 8 -1.5
v 4.5 8 -1.5
v 5.5 8 -1.5
v -5.5 8 -2.5
v 5.5 8 -2.5
v -17.5 9 5.5
v -6.5 9 5.5
v -5.5 9 5.5
v 5.5 9 5.5
v 6.5 9 5.5
v 17.5 9 5.5
v -16.5 9 4.5
v -7.5 9 4.5
v -4.5 9 4.5
v 4.5 9 4.5
v 7.5 9 4.5
v 16.5 9 4.5
v -16.5 9 -1.5
v -7.5 9 -1.5
v -5.5 9 -1.5
v -4.5 9 -1.5
v 4.5 9 -1.5
v 5.5 9 -1.5
v 7.5 9 -1.5
v 16.5 9 -1.5
v -17.5 9 -2.5
v -6.5 9 -2.5
v 6.5 9 -2.5
v 17.5 9 -2.5
v -15.5 14 3.5
v -8.5 14 3.5
v -3.5 14 3.5
v 3.5 14 3.5
v 8.5 14 3.5
v 15.5 14 3.5
v -15.5 14 0.5
v -8.5 14 0.5
v 8.5 14 0.5
v 15.5 14 0.5
v -3.5 14 -0.5
v 3.5 14 -0.5
v -15.5 7 3.5
v -8.5 7 3.5
v -3.5 7 3.5
v 3.5 7 3.5
v 8.5 7 3.5
v 15.5 7 3.5
v -15.5 7 0.5
v -8.5 7 0.5
v 8.5 7 0.5
v 15.5 7 0.5
v -3.5 7 -0.5
v 3.5 7 -0.5
v -17.5 10 5.5
v -6.5 10 5.5
v -5.5 10 5.5
v 5.5 10 5.5
v 6.5 10 5.5
v 17.5 10 5.5
v -16.5 10 4.5
v -7.5 10 4.5
v -4.5 10 4.5
v 4.5 10 4.5
v 7.5 10 4.5
v 16.5 10 4.5
v -16.5 10 -1.5
v -7.5 10 -1.5
v -4.5 10 -1.5
v 4.5 10 -1.5
v 7.5 10 -1.5
v 16.5 10 -1.5
v -17.5 10 -2.5
v -6.5 10 -2.5
v -5.5 10 -2.5
v 5.5 10 -2.5
v 6.5 10 -2.5
v 17.5 10 -2.5
v -15.5 11 4.5
v -8.5 11 4.5
v -3.5 11 4.5
v 3.5 11 4.5
v 8.5 11 4.5
v 15.5 11 4.5
v -15.5 11 3.5
v -8.5 11 3.5
v -3.5 11 3.5
v 3.5 11 3.5
v 8.5 11 3.5
v 15.5 11 3.5
v -16.5 12 4.5
v -15.5 12 4.5
v -8.5 12 4.5
v -7.5 12 4.5
v -4.5 12 4.5
v -3.5 12 4.5
v 3.5 12 4.5
v 4.5 12 4.5
v 7.5 12 4.5
v 8.5 12 4.5
v 15.5 12 4.5
v 16.5 12 4.5
v -16.5 12 3.5
v -15.5 12 3.5
v -8.5 12 3.5
v -7.5 12 3.5
v -4.5 12 3.5
v -3.5 12 3.5
v 3.5 12 3.5
v 4.5 12 3.5
v 7.5 12 3.5
v 8.5 12 3.5
v 15.5 12 3.5
v 16.5 12 3.5
v -16.5 15 3.5
v -7.5 15 3.5
v -4.5 15 3.5
v 4.5 15 3.5
v 7.5 15 3.5
v 16.5 15 3.5
v -16.5 15 -1.5
v -7.5 15 -1.5
v -4.5 15 -1.5
v 4.5 15 -1.5
v 7.5 15 -1.5
v 16.5 15 -1.5

# faces
f 3/1/1 2/1/1 1/1/1
f 4/1/1 2/1/1 3/1/1
f 7/1/1 6/1/1 5/1/1
f 8/1/1 6/1/1 7/1/1
f 11/1/1 10/1/1 9/1/1
f 12/1/1 10/1/1 11/1/1
f 13/1/1 10/1/1 12/1/1
f 14/1/1 10/1/1 13/1/1
f 18/1/1 16/1/1 15/1/1
f 19/1/1 18/1/1 17/1/1
f 20/1/1 16/1/1 18/1/1
f 20/1/1 18/1/1 19/1/1
f 21/1/1 16/1/1 20/1/1
f 22/1/1 16/1/1 21/1/1
f 26/4/1 24/4/1 23/4/1
f 27/4/1 26/4/1 25/4/1
f 28/4/1 24/4/1 26/4/1
f 28/4/1 26/4/1 27/4/1
f 31/2/1 30/2/1 29/2/1
f 32/2/1 30/2/1 31/2/1
f 33/4/1 32/4/1 31/4/1
f 34/4/1 33/4/1 31/4/1
f 35/4/1 33/4/1 34/4/1
f 38/4/1 37/4/1 36/4/1
f 39/4/1 37/4/1 38/4/1
f 40/4/1 37/4/1 39/4/1
f 41/4/1 37/4/1 40/4/1
f 45/4/1 43/4/1 42/4/1
f 46/4/1 45/4/1 44/4/1
f 47/4/1 43/4/1 45/4/1
f 47/4/1 45/4/1 46/4/1
f 48/4/1 43/4/1 47/4/1
f 49/4/1 43/4/1 48/4/1
f 52/3/1 51/3/1 50/3/1
f 53/3/1 51/3/1 52/3/1
f 56/3/1 55/3/1 54/3/1
f 57/3/1 55/3/1 56/3/1
f 60/3/1 59/3/1 58/3/1
f 61/3/1 59/3/1 60/3/1
f 62/3/1 59/3/1 61/3/1
f 63/3/1 59/3/1 62/3/1
f 66/3/1 65/3/1 64/3/1
f 67/3/1 65/3/1 66/3/1
f 69/3/1 65/3/1 67/3/1
f 70/3/1 69/3/1 68/3/1
f 71/3/1 65/3/1 69/3/1
f 71/3/1 69/3/1 70/3/1
f 72/3/1 65/3/1 71/3/1
f 73/3/1 65/3/1 72/3/1
f 74/1/2 75/1/2 77/1/2
f 76/1/2 77/1/2 78/1/2
f 77/1/2 75/1/2 79/1/2
f 78/1/2 77/1/2 79/1/2
f 79/1/2 75/1/2 80/1/2
f 80/1/2 75/1/2 81/1/2
f 82/1/2 83/1/2 84/1/2
f 84/1/2 83/1/2 85/1/2
f 86/1/2 87/1/2 88/1/2
f 88/1/2 87/1/2 89/1/2
f 89/1/2 87/1/2 90/1/2
f 90/1/2 87/1/2 91/1/2
f 92/1/2 93/1/2 94/1/2
f 94/1/2 93/1/2 95/1/2
f 96/4/2 97/4/2 99/4/2
f 98/4/2 99/4/2 100/4/2
f 99/4/2 97/4/2 101/4/2
f 100/4/2 99/4/2 101/4/2
f 101/4/2 97/4/2 102/4/2
f 102/4/2 97/4/2 103/4/2
f 104/2/2 105/2/2 106/2/2
f 106/2/2 105/2/2 107/2/2
f 106/4/2 107/4/2 108/4/2
f 106/4/2 108/4/2 109/4/2
f 109/4/2 108/4/2 110/4/2
f 111/4/2 112/4/2 113/4/2
f 113/4/2 112/4/2 114/4/2
f 114/4/2 112/4/2 115/4/2
f 115/4/2 112/4/2 116/4/2
f 117/4/2 118/4/2 120/4/2
f 119/4/2 120/4/2 121/4/2
f 120/4/2 118/4/2 122/4/2
f 121/4/2 120/4/2 122/4/2
f 123/3/2 124/3/2 125/3/2
f 125/3/2 124/3/2 126/3/2
f 126/3/2 124/3/2 128/3/2
f 127/3/2 128/3/2 129/3/2
f 128/3/2 124/3/2 130/3/2
f 129/3/2 128/3/2 130/3/2
f 130/3/2 124/3/2 131/3/2
f 131/3/2 124/3/2 132/3/2
f 133/3/2 134/3/2 135/3/2
f 135/3/2 134/3/2 136/3/2
f 137/3/2 138/3/2 139/3/2
f 139/3/2 138/3/2 140/3/2
f 140/3/2 138/3/2 141/3/2
f 141/3/2 138/3/2 142/3/2
f 143/3/2 144/3/2 145/3/2
f 145/3/2 144/3/2 146/3/2
f 149/1/3 148/1/3 147/1/3
f 150/1/3 148/1/3 149/1/3
f 153/4/3 152/4/3 151/4/3
f 154/4/3 152/4/3 153/4/3
f 157/3/3 156/3/3 155/3/3
f 158/3/3 156/3/3 157/3/3
f 163/1/3 160/1/3 159/1/3
f 164/1/3 160/1/3 163/1/3
f 165/1/3 162/1/3 161/1/3
f 166/1/3 162/1/3 165/1/3
f 167/1/3 163/1/3 159/1/3
f 167/5/3 164/5/3 163/5/3
f 168/1/3 160/1/3 164/1/3
f 168/5/3 164/5/3 167/5/3
f 169/1/3 160/1/3 168/1/3
f 170/1/3 167/1/3 159/1/3
f 170/1/3 168/1/3 167/1/3
f 171/1/3 168/1/3 170/1/3
f 172/5/3 169/5/3 168/5/3
f 172/1/3 168/1/3 171/1/3
f 173/1/3 160/1/3 169/1/3
f 173/5/3 169/5/3 172/5/3
f 174/1/3 160/1/3 173/1/3
f 175/1/3 172/1/3 171/1/3
f 175/1/3 173/1/3 172/1/3
f 175/5/3 174/5/3 173/5/3
f 176/1/3 160/1/3 174/1/3
f 176/5/3 174/5/3 175/5/3
f 177/1/3 175/1/3 171/1/3
f 177/1/3 176/1/3 175/1/3
f 178/1/3 160/1/3 176/1/3
f 178/1/3 176/1/3 177/1/3
f 179/5/3 171/5/3 170/5/3
f 179/1/3 170/1/3 159/1/3
f 180/1/3 177/1/3 171/1/3
f 180/5/3 171/5/3 179/5/3
f 181/1/3 177/1/3 180/1/3
f 182/5/3 178/5/3 177/5/3
f 182/1/3 177/1/3 181/1/3
f 183/1/3 160/1/3 178/1/3
f 183/5/3 178/5/3 182/5/3
f 184/1/3 181/1/3 180/1/3
f 184/1/3 180/1/3 179/1/3
f 185/5/3 182/5/3 181/5/3
f 185/1/3 181/1/3 184/1/3
f 186/1/3 183/1/3 182/1/3
f 186/5/3 182/5/3 185/5/3
f 187/1/3 184/1/3 179/1/3
f 187/5/3 185/5/3 184/5/3
f 188/1/3 186/1/3 185/1/3
f 188/5/3 185/5/3 187/5/3
f 189/1/3 165/1/3 161/1/3
f 191/1/3 179/1/3 159/1/3
f 191/1/3 187/1/3 179/1/3
f 191/1/3 188/1/3 187/1/3
f 192/1/3 186/1/3 188/1/3
f 192/1/3 188/1/3 191/1/3
f 192/1/3 183/1/3 186/1/3
f 192/1/3 160/1/3 183/1/3
f 193/1/3 190/1/3 189/1/3
f 193/1/3 189/1/3 161/1/3
f 194/1/3 190/1/3 193/1/3
f 200/4/3 197/4/3 196/4/3
f 201/4/3 197/4/3 200/4/3
f 202/4/3 199/4/3 198/4/3
f 203/4/3 199/4/3 202/4/3
f 204/4/3 200/4/3 196/4/3
f 204/5/3 201/5/3 200/5/3
f 205/4/3 197/4/3 201/4/3
f 205/5/3 201/5/3 204/5/3
f 206/4/3 197/4/3 205/4/3
f 207/4/3 204/4/3 196/4/3
f 207/4/3 205/4/3 204/4/3
f 208/4/3 205/4/3 207/4/3
f 209/5/3 206/5/3 205/5/3
f 209/4/3 205/4/3 208/4/3
f 210/4/3 197/4/3 206/4/3
f 210/5/3 206/5/3 209/5/3
f 211/4/3 197/4/3 210/4/3
f 212/4/3 209/4/3 208/4/3
f 212/4/3 210/4/3 209/4/3
f 212/5/3 211/5/3 210/5/3
f 213/4/3 197/4/3 211/4/3
f 213/5/3 211/5/3 212/5/3
f 214/4/3 212/4/3 208/4/3
f 214/4/3 213/4/3 212/4/3
f 215/4/3 197/4/3 213/4/3
f 215/4/3 213/4/3 214/4/3
f 216/5/3 208/5/3 207/5/3
f 216/4/3 207/4/3 196/4/3
f 217/4/3 214/4/3 208/4/3
f 217/5/3 208/5/3 216/5/3
f 218/4/3 214/4/3 217/4/3
f 219/5/3 215/5/3 214/5/3
f 219/4/3 214/4/3 218/4/3
f 220/4/3 197/4/3 215/4/3
f 220/5/3 215/5/3 219/5/3
f 221/4/3 218/4/3 217/4/3
f 221/4/3 217/4/3 216/4/3
f 222/5/3 219/5/3 218/5/3
f 222/4/3 218/4/3 221/4/3
f 223/4/3 220/4/3 219/4/3
f 223/5/3 219/5/3 222/5/3
f 224/4/3 221/4/3 216/4/3
f 224/5/3 222/5/3 221/5/3
f 225/4/3 223/4/3 222/4/3
f 225/5/3 222/5/3 224/5/3
f 226/4/3 202/4/3 198/4/3
f 228/2/3 196/2/3 195/2/3
f 229/4/3 216/4/3 196/4/3
f 229/2/3 196/2/3 228/2/3
f 229/4/3 224/4/3 216/4/3
f 229/4/3 225/4/3 224/4/3
f 230/4/3 223/4/3 225/4/3
f 230/4/3 225/4/3 229/4/3
f 230/4/3 220/4/3 223/4/3
f 230/4/3 197/4/3 220/4/3
f 231/4/3 227/4/3 226/4/3
f 231/4/3 226/4/3 198/4/3
f 232/4/3 227/4/3 231/4/3
f 237/3/3 234/3/3 233/3/3
f 238/3/3 234/3/3 237/3/3
f 239/3/3 236/3/3 235/3/3
f 240/3/3 236/3/3 239/3/3
f 241/3/3 237/3/3 233/3/3
f 241/5/3 238/5/3 237/5/3
f 242/3/3 234/3/3 238/3/3
f 242/5/3 238/5/3 241/5/3
f 243/3/3 234/3/3 242/3/3
f 244/3/3 241/3/3 233/3/3
f 244/3/3 242/3/3 241/3/3
f 245/3/3 242/3/3 244/3/3
f 246/5/3 243/5/3 242/5/3
f 246/3/3 242/3/3 245/3/3
f 247/3/3 234/3/3 243/3/3
f 247/5/3 243/5/3 246/5/3
f 248/3/3 234/3/3 247/3/3
f 249/3/3 246/3/3 245/3/3
f 249/3/3 247/3/3 246/3/3
f 249/5/3 248/5/3 247/5/3
f 250/3/3 234/3/3 248/3/3
f 250/5/3 248/5/3 249/5/3
f 251/3/3 249/3/3 245/3/3
f 251/3/3 250/3/3 249/3/3
f 252/3/3 234/3/3 250/3/3
f 252/3/3 250/3/3 251/3/3
f 253/5/3 245/5/3 244/5/3
f 253/3/3 244/3/3 233/3/3
f 254/3/3 251/3/3 245/3/3
f 254/5/3 245/5/3 253/5/3
f 255/3/3 251/3/3 254/3/3
f 256/5/3 252/5/3 251/5/3
f 256/3/3 251/3/3 255/3/3
f 257/3/3 234/3/3 252/3/3
f 257/5/3 252/5/3 256/5/3
f 258/3/3 255/3/3 254/3/3
f 258/3/3 254/3/3 253/3/3
f 259/5/3 256/5/3 255/5/3
f 259/3/3 255/3/3 258/3/3
f 260/3/3 257/3/3 256/3/3
f 260/5/3 256/5/3 259/5/3
f 261/3/3 258/3/3 253/3/3
f 261/5/3 259/5/3 258/5/3
f 262/3/3 260/3/3 259/3/3
f 262/5/3 259/5/3 261/5/3
f 263/3/3 239/3/3 235/3/3
f 265/3/3 253/3/3 233/3/3
f 265/3/3 261/3/3 253/3/3
f 265/3/3 262/3/3 261/3/3
f 266/3/3 260/3/3 262/3/3
f 266/3/3 262/3/3 265/3/3
f 266/3/3 257/3/3 260/3/3
f 266/3/3 234/3/3 257/3/3
f 267/3/3 264/3/3 263/3/3
f 267/3/3 263/3/3 235/3/3
f 268/3/3 264/3/3 267/3/3
f 271/1/3 270/1/3 269/1/3
f 272/1/3 270/1/3 271/1/3
f 274/1/3 270/1/3 272/1/3
f 275/1/3 274/1/3 273/1/3
f 276/1/3 270/1/3 274/1/3
f 276/1/3 274/1/3 275/1/3
f 279/4/3 278/4/3 277/4/3
f 280/4/3 278/4/3 279/4/3
f 282/4/3 278/4/3 280/4/3
f 283/4/3 282/4/3 281/4/3
f 284/4/3 278/4/3 282/4/3
f 284/4/3 282/4/3 283/4/3
f 287/3/3 286/3/3 285/3/3
f 288/3/3 286/3/3 287/3/3
f 290/3/3 286/3/3 288/3/3
f 291/3/3 290/3/3 289/3/3
f 292/3/3 286/3/3 290/3/3
f 292/3/3 290/3/3 291/3/3
f 295/1/3 294/1/3 293/1/3
f 296/1/3 294/1/3 295/1/3
f 299/3/3 298/3/3 297/3/3
f 300/3/3 298/3/3 299/3/3
f 303/4/3 302/4/3 301/4/3
f 304/4/3 302/4/3 303/4/3
f 307/4/3 306/4/3 305/4/3
f 308/4/3 306/4/3 307/4/3
f 311/4/3 310/4/3 309/4/3
f 312/4/3 310/4/3 311/4/3
f 313/1/4 314/1/4 315/1/4
f 315/1/4 314/1/4 316/1/4
f 317/4/4 318/4/4 319/4/4
f 319/4/4 318/4/4 320/4/4
f 321/3/4 322/3/4 325/3/4
f 322/1/4 323/1/4 326/1/4
f 325/3/4 322/3/4 326/3/4
f 323/3/4 324/3/4 327/3/4
f 326/1/4 323/1/4 327/1/4
f 327/3/4 324/3/4 328/3/4
f 329/1/4 330/1/4 333/1/4
f 333/1/4 330/1/4 334/1/4
f 331/1/4 332/1/4 335/1/4
f 335/1/4 332/1/4 336/1/4
f 337/2/4 338/2/4 342/2/4
f 338/4/4 339/4/4 343/4/4
f 342/2/4 338/2/4 343/2/4
f 343/4/4 339/4/4 344/4/4
f 340/4/4 341/4/4 345/4/4
f 345/4/4 341/4/4 346/4/4
f 347/3/4 348/3/4 351/3/4
f 351/3/4 348/3/4 352/3/4
f 349/3/4 350/3/4 353/3/4
f 353/3/4 350/3/4 354/3/4
f 355/1/4 356/1/4 357/1/4
f 357/1/4 356/1/4 358/1/4
f 359/4/4 360/4/4 361/4/4
f 361/4/4 360/4/4 362/4/4
f 363/3/4 364/3/4 365/3/4
f 365/3/4 364/3/4 366/3/4
f 373/3/5 372/3/5 371/3/5
f 374/3/5 372/3/5 373/3/5
f 375/3/5 373/3/5 371/3/5
f 375/1/5 374/1/5 373/1/5
f 376/3/5 372/3/5 374/3/5
f 376/1/5 374/1/5 375/1/5
f 377/1/5 368/1/5 367/1/5
f 378/1/5 368/1/5 377/1/5
f 379/2/5 370/2/5 369/2/5
f 380/2/5 370/2/5 379/2/5
f 381/3/5 375/3/5 371/3/5
f 381/3/5 376/3/5 375/3/5
f 382/3/5 372/3/5 376/3/5
f 382/3/5 376/3/5 381/3/5
f 387/4/5 384/4/5 383/4/5
f 387/4/5 386/4/5 385/4/5
f 387/4/5 385/4/5 384/4/5
f 388/4/5 386/4/5 387/4/5
f 395/1/5 390/1/5 389/1/5
f 396/1/5 390/1/5 395/1/5
f 397/4/5 392/4/5 391/4/5
f 398/4/5 392/4/5 397/4/5
f 399/3/5 394/3/5 393/3/5
f 400/3/5 394/3/5 399/3/5
f 401/1/5 395/1/5 389/1/5
f 402/1/5 390/1/5 396/1/5
f 403/4/5 397/4/5 391/4/5
f 404/4/5 397/4/5 403/4/5
f 405/4/5 392/4/5 398/4/5
f 406/4/5 392/4/5 405/4/5
f 407/3/5 399/3/5 393/3/5
f 408/3/5 394/3/5 400/3/5
f 409/1/5 401/1/5 389/1/5
f 409/1/5 402/1/5 401/1/5
f 410/1/5 390/1/5 402/1/5
f 410/1/5 402/1/5 409/1/5
f 411/3/5 408/3/5 407/3/5
f 411/3/5 407/3/5 393/3/5
f 412/3/5 394/3/5 408/3/5
f 412/3/5 408/3/5 411/3/5
f 419/1/5 414/1/5 413/1/5
f 420/1/5 414/1/5 419/1/5
f 421/3/5 418/3/5 417/3/5
f 422/3/5 418/3/5 421/3/5
f 423/4/5 416/4/5 415/4/5
f 424/4/5 416/4/5 423/4/5
f 425/1/6 426/1/6 431/1/6
f 431/1/6 426/1/6 432/1/6
f 429/3/6 430/3/6 433/3/6
f 433/3/6 430/3/6 434/3/6
f 427/4/6 428/4/6 435/4/6
f 435/4/6 428/4/6 436/4/6
f 437/1/6 438/1/6 443/1/6
f 443/1/6 438/1/6 444/1/6
f 439/4/6 440/4/6 445/4/6
f 445/4/6 440/4/6 446/4/6
f 441/3/6 442/3/6 447/3/6
f 447/3/6 442/3/6 448/3/6
f 437/1/6 443/1/6 449/1/6
f 444/1/6 438/1/6 450/1/6
f 439/4/6 445/4/6 451/4/6
f 446/4/6 440/4/6 452/4/6
f 441/3/6 447/3/6 453/3/6
f 448/3/6 442/3/6 454/3/6
f 437/1/6 449/1/6 455/1/6
f 449/1/6 450/1/6 455/1/6
f 450/1/6 438/1/6 456/1/6
f 455/1/6 450/1/6 456/1/6
f 439/4/6 451/4/6 457/4/6
f 451/4/6 452/4/6 457/4/6
f 452/4/6 440/4/6 458/4/6
f 457/4/6 452/4/6 458/4/6
f 453/3/6 454/3/6 459/3/6
f 441/3/6 453/3/6 459/3/6
f 454/3/6 442/3/6 460/3/6
f 459/3/6 454/3/6 460/3/6
f 461/1/6 462/1/6 467/1/6
f 467/1/6 462/1/6 468/1/6
f 463/4/6 464/4/6 469/4/6
f 469/4/6 464/4/6 470/4/6
f 465/3/6 466/3/6 471/3/6
f 471/3/6 466/3/6 472/3/6
f 473/1/6 474/1/6 485/1/6
f 485/1/6 474/1/6 486/1/6
f 475/1/6 476/1/6 487/1/6
f 487/1/6 476/1/6 488/1/6
f 477/4/6 478/4/6 489/4/6
f 489/4/6 478/4/6 490/4/6
f 479/4/6 480/4/6 491/4/6
f 491/4/6 480/4/6 492/4/6
f 481/3/6 482/3/6 493/3/6
f 493/3/6 482/3/6 494/3/6
f 483/3/6 484/3/6 495/3/6
f 495/3/6 484/3/6 496/3/6
f 497/1/6 498/1/6 503/1/6
f 503/1/6 498/1/6 504/1/6
f 499/4/6 500/4/6 505/4/6
f 505/4/6 500/4/6 506/4/6
f 501/3/6 502/3/6 507/3/6
f 507/3/6 502/3/6 508/3/6
