# MagicaVoxel @ Ephtracy

# group
g gglive_dad_main

# material
mtllib gglive_dad_main.mtl
usemtl palette

# normals
vn -1 0 0
vn 1 0 0
vn 0 0 1
vn 0 0 -1
vn 0 -1 0
vn 0 1 0

# texcoords
vt 0.0136719 0.5
vt 0.0761719 0.5
vt 0.158203 0.5
vt 0.599609 0.5
vt 0.736328 0.5
vt 0.740234 0.5
vt 0.841797 0.5
vt 0.904297 0.5
vt 0.958984 0.5
vt 0.994141 0.5

# verts
v -4.5 14 -0.5
v -4.5 14 -2.5
v -4.5 15 -0.5
v -4.5 15 -2.5
v -4.5 20 -0.5
v -4.5 20 -1.5
v -4.5 25 -0.5
v -4.5 25 -1.5
v -3.5 13 2.5
v -3.5 13 1.5
v -3.5 14 0.5
v -3.5 14 -0.5
v -3.5 15 1.5
v -3.5 15 0.5
v -3.5 15 -0.5
v -3.5 15 -2.5
v -3.5 15 -3.5
v -3.5 16 2.5
v -3.5 16 1.5
v -3.5 20 -0.5
v -3.5 20 -1.5
v -3.5 21 0.5
v -3.5 21 -0.5
v -3.5 21 -1.5
v -3.5 21 -3.5
v -3.5 22 1.5
v -3.5 22 0.5
v -3.5 23 1.5
v -3.5 23 -0.5
v -3.5 23 -1.5
v -3.5 23 -3.5
v -3.5 25 -0.5
v -3.5 25 -1.5
v -3.5 26 -0.5
v -3.5 26 -1.5
v -2.5 7 0.5
v -2.5 7 -2.5
v -2.5 8 0.5
v -2.5 8 -2.5
v -2.5 14 0.5
v -2.5 14 -2.5
v -2.5 22 3.5
v -2.5 22 1.5
v -2.5 23 3.5
v -2.5 23 1.5
v -2.5 23 -0.5
v -2.5 23 -1.5
v -2.5 23 -3.5
v -2.5 24 1.5
v -2.5 24 0.5
v -2.5 25 0.5
v -2.5 25 -0.5
v -2.5 25 -1.5
v -2.5 25 -3.5
v -1.5 16 2.5
v -1.5 16 1.5
v -1.5 17 2.5
v -1.5 17 1.5
v -1.5 21 2.5
v -1.5 21 1.5
v -1.5 22 4.5
v -1.5 22 3.5
v -1.5 23 4.5
v -1.5 23 3.5
v -0.5 13 2.5
v -0.5 13 1.5
v -0.5 15 2.5
v -0.5 15 1.5
v 1.5 14 2.5
v 1.5 14 1.5
v 1.5 15 2.5
v 1.5 15 1.5
v 2.5 13 2.5
v 2.5 13 1.5
v 2.5 14 2.5
v 2.5 14 1.5
v 2.5 25 -0.5
v 2.5 25 -1.5
v 2.5 26 -0.5
v 2.5 26 -1.5
v -2.5 13 2.5
v -2.5 13 1.5
v -2.5 14 2.5
v -2.5 14 1.5
v -2.5 25 -0.5
v -2.5 25 -1.5
v -2.5 26 -0.5
v -2.5 26 -1.5
v -1.5 14 2.5
v -1.5 14 1.5
v -1.5 15 2.5
v -1.5 15 1.5
v 0.5 13 2.5
v 0.5 13 1.5
v 0.5 15 2.5
v 0.5 15 1.5
v 1.5 16 2.5
v 1.5 16 1.5
v 1.5 17 2.5
v 1.5 17 1.5
v 1.5 21 2.5
v 1.5 21 1.5
v 1.5 22 4.5
v 1.5 22 3.5
v 1.5 23 4.5
v 1.5 23 3.5
v 2.5 7 0.5
v 2.5 7 -2.5
v 2.5 8 0.5
v 2.5 8 -2.5
v 2.5 14 0.5
v 2.5 14 -2.5
v 2.5 22 3.5
v 2.5 22 1.5
v 2.5 23 3.5
v 2.5 23 1.5
v 2.5 23 -0.5
v 2.5 23 -1.5
v 2.5 23 -3.5
v 2.5 24 1.5
v 2.5 24 0.5
v 2.5 25 0.5
v 2.5 25 -0.5
v 2.5 25 -1.5
v 2.5 25 -3.5
v 3.5 13 2.5
v 3.5 13 1.5
v 3.5 14 0.5
v 3.5 14 -0.5
v 3.5 15 1.5
v 3.5 15 0.5
v 3.5 15 -0.5
v 3.5 15 -2.5
v 3.5 15 -3.5
v 3.5 16 2.5
v 3.5 16 1.5
v 3.5 20 -0.5
v 3.5 20 -1.5
v 3.5 21 0.5
v 3.5 21 -0.5
v 3.5 21 -1.5
v 3.5 21 -3.5
v 3.5 22 1.5
v 3.5 22 0.5
v 3.5 23 1.5
v 3.5 23 -0.5
v 3.5 23 -1.5
v 3.5 23 -3.5
v 3.5 25 -0.5
v 3.5 25 -1.5
v 3.5 26 -0.5
v 3.5 26 -1.5
v 4.5 14 -0.5
v 4.5 14 -2.5
v 4.5 15 -0.5
v 4.5 15 -2.5
v 4.5 20 -0.5
v 4.5 20 -1.5
v 4.5 25 -0.5
v 4.5 25 -1.5
v -1.5 22 4.5
v -1.5 23 4.5
v 1.5 22 4.5
v 1.5 23 4.5
v -2.5 22 3.5
v -2.5 23 3.5
v -1.5 22 3.5
v -1.5 23 3.5
v 1.5 22 3.5
v 1.5 23 3.5
v 2.5 22 3.5
v 2.5 23 3.5
v -3.5 13 2.5
v -3.5 16 2.5
v -2.5 13 2.5
v -2.5 14 2.5
v -1.5 14 2.5
v -1.5 15 2.5
v -1.5 16 2.5
v -1.5 17 2.5
v -1.5 21 2.5
v -0.5 13 2.5
v -0.5 15 2.5
v -0.5 18 2.5
v -0.5 20 2.5
v 0.5 13 2.5
v 0.5 15 2.5
v 0.5 18 2.5
v 0.5 20 2.5
v 1.5 14 2.5
v 1.5 15 2.5
v 1.5 16 2.5
v 1.5 17 2.5
v 1.5 21 2.5
v 2.5 13 2.5
v 2.5 14 2.5
v 3.5 13 2.5
v 3.5 16 2.5
v -3.5 16 1.5
v -3.5 22 1.5
v -3.5 23 1.5
v -2.5 22 1.5
v -2.5 23 1.5
v -2.5 24 1.5
v -1.5 16 1.5
v -1.5 17 1.5
v -1.5 21 1.5
v 1.5 16 1.5
v 1.5 17 1.5
v 1.5 21 1.5
v 2.5 22 1.5
v 2.5 23 1.5
v 2.5 24 1.5
v 3.5 16 1.5
v 3.5 22 1.5
v 3.5 23 1.5
v -3.5 14 0.5
v -3.5 15 0.5
v -2.5 7 0.5
v -2.5 8 0.5
v -2.5 14 0.5
v -2.5 24 0.5
v -2.5 25 0.5
v -0.5 8 0.5
v -0.5 9 0.5
v -0.5 10 0.5
v -0.5 15 0.5
v 0.5 8 0.5
v 0.5 9 0.5
v 0.5 10 0.5
v 0.5 15 0.5
v 2.5 7 0.5
v 2.5 8 0.5
v 2.5 14 0.5
v 2.5 24 0.5
v 2.5 25 0.5
v 3.5 14 0.5
v 3.5 15 0.5
v -4.5 14 -0.5
v -4.5 15 -0.5
v -4.5 20 -0.5
v -4.5 25 -0.5
v -3.5 14 -0.5
v -3.5 15 -0.5
v -3.5 20 -0.5
v -3.5 21 -0.5
v -3.5 23 -0.5
v -3.5 25 -0.5
v -3.5 26 -0.5
v -2.5 23 -0.5
v -2.5 25 -0.5
v -2.5 26 -0.5
v 2.5 23 -0.5
v 2.5 25 -0.5
v 2.5 26 -0.5
v 3.5 14 -0.5
v 3.5 15 -0.5
v 3.5 20 -0.5
v 3.5 21 -0.5
v 3.5 23 -0.5
v 3.5 25 -0.5
v 3.5 26 -0.5
v 4.5 14 -0.5
v 4.5 15 -0.5
v 4.5 20 -0.5
v 4.5 25 -0.5
v -3.5 13 1.5
v -3.5 15 1.5
v -2.5 13 1.5
v -2.5 14 1.5
v -1.5 14 1.5
v -1.5 15 1.5
v -0.5 13 1.5
v -0.5 15 1.5
v 0.5 13 1.5
v 0.5 15 1.5
v 1.5 14 1.5
v 1.5 15 1.5
v 2.5 13 1.5
v 2.5 14 1.5
v 3.5 13 1.5
v 3.5 15 1.5
v -4.5 20 -1.5
v -4.5 25 -1.5
v -3.5 20 -1.5
v -3.5 21 -1.5
v -3.5 23 -1.5
v -3.5 25 -1.5
v -3.5 26 -1.5
v -2.5 23 -1.5
v -2.5 25 -1.5
v -2.5 26 -1.5
v 2.5 23 -1.5
v 2.5 25 -1.5
v 2.5 26 -1.5
v 3.5 20 -1.5
v 3.5 21 -1.5
v 3.5 23 -1.5
v 3.5 25 -1.5
v 3.5 26 -1.5
v 4.5 20 -1.5
v 4.5 25 -1.5
v -4.5 14 -2.5
v -4.5 15 -2.5
v -3.5 15 -2.5
v -2.5 7 -2.5
v -2.5 8 -2.5
v -2.5 14 -2.5
v 2.5 7 -2.5
v 2.5 8 -2.5
v 2.5 14 -2.5
v 3.5 15 -2.5
v 4.5 14 -2.5
v 4.5 15 -2.5
v -3.5 15 -3.5
v -3.5 21 -3.5
v -3.5 23 -3.5
v -2.5 23 -3.5
v -2.5 25 -3.5
v -1.5 22 -3.5
v -1.5 23 -3.5
v 1.5 22 -3.5
v 1.5 23 -3.5
v 2.5 23 -3.5
v 2.5 25 -3.5
v 3.5 15 -3.5
v 3.5 21 -3.5
v 3.5 23 -3.5
v -2.5 7 0.5
v 2.5 7 0.5
v -2.5 7 -2.5
v 2.5 7 -2.5
v -3.5 13 2.5
v -2.5 13 2.5
v -0.5 13 2.5
v 0.5 13 2.5
v 2.5 13 2.5
v 3.5 13 2.5
v -3.5 13 1.5
v -2.5 13 1.5
v -0.5 13 1.5
v 0.5 13 1.5
v 2.5 13 1.5
v 3.5 13 1.5
v -2.5 14 2.5
v -1.5 14 2.5
v 1.5 14 2.5
v 2.5 14 2.5
v -2.5 14 1.5
v -1.5 14 1.5
v 1.5 14 1.5
v 2.5 14 1.5
v -3.5 14 0.5
v -2.5 14 0.5
v 2.5 14 0.5
v 3.5 14 0.5
v -4.5 14 -0.5
v -3.5 14 -0.5
v 3.5 14 -0.5
v 4.5 14 -0.5
v -4.5 14 -2.5
v -2.5 14 -2.5
v 2.5 14 -2.5
v 4.5 14 -2.5
v -1.5 15 2.5
v -0.5 15 2.5
v 0.5 15 2.5
v 1.5 15 2.5
v -3.5 15 1.5
v -1.5 15 1.5
v -0.5 15 1.5
v 0.5 15 1.5
v 1.5 15 1.5
v 3.5 15 1.5
v -3.5 15 0.5
v -0.5 15 0.5
v 0.5 15 0.5
v 3.5 15 0.5
v -3.5 15 -2.5
v 3.5 15 -2.5
v -3.5 15 -3.5
v 3.5 15 -3.5
v -4.5 20 -0.5
v -3.5 20 -0.5
v 3.5 20 -0.5
v 4.5 20 -0.5
v -4.5 20 -1.5
v -3.5 20 -1.5
v 3.5 20 -1.5
v 4.5 20 -1.5
v -1.5 22 4.5
v 1.5 22 4.5
v -2.5 22 3.5
v -1.5 22 3.5
v 1.5 22 3.5
v 2.5 22 3.5
v -2.5 22 1.5
v 2.5 22 1.5
v -4.5 15 -0.5
v -3.5 15 -0.5
v 3.5 15 -0.5
v 4.5 15 -0.5
v -4.5 15 -2.5
v -3.5 15 -2.5
v 3.5 15 -2.5
v 4.5 15 -2.5
v -3.5 16 2.5
v -1.5 16 2.5
v 1.5 16 2.5
v 3.5 16 2.5
v -3.5 16 1.5
v -1.5 16 1.5
v 1.5 16 1.5
v 3.5 16 1.5
v -1.5 21 2.5
v 1.5 21 2.5
v -1.5 21 1.5
v 1.5 21 1.5
v -1.5 23 4.5
v 1.5 23 4.5
v -2.5 23 3.5
v -1.5 23 3.5
v 1.5 23 3.5
v 2.5 23 3.5
v -3.5 23 1.5
v -2.5 23 1.5
v 2.5 23 1.5
v 3.5 23 1.5
v -3.5 23 -0.5
v -2.5 23 -0.5
v 2.5 23 -0.5
v 3.5 23 -0.5
v -3.5 23 -1.5
v -2.5 23 -1.5
v 2.5 23 -1.5
v 3.5 23 -1.5
v -3.5 23 -3.5
v -2.5 23 -3.5
v 2.5 23 -3.5
v 3.5 23 -3.5
v -2.5 24 1.5
v 2.5 24 1.5
v -2.5 24 0.5
v 2.5 24 0.5
v -2.5 25 0.5
v 2.5 25 0.5
v -4.5 25 -0.5
v -3.5 25 -0.5
v -2.5 25 -0.5
v 2.5 25 -0.5
v 3.5 25 -0.5
v 4.5 25 -0.5
v -4.5 25 -1.5
v -3.5 25 -1.5
v -2.5 25 -1.5
v 2.5 25 -1.5
v 3.5 25 -1.5
v 4.5 25 -1.5
v -2.5 25 -3.5
v 2.5 25 -3.5
v -3.5 26 -0.5
v -2.5 26 -0.5
v 2.5 26 -0.5
v 3.5 26 -0.5
v -3.5 26 -1.5
v -2.5 26 -1.5
v 2.5 26 -1.5
v 3.5 26 -1.5

# faces
f 3/7/1 2/7/1 1/7/1
f 4/7/1 2/7/1 3/7/1
f 7/8/1 6/8/1 5/8/1
f 8/8/1 6/8/1 7/8/1
f 13/8/1 10/8/1 9/8/1
f 14/7/1 12/7/1 11/7/1
f 15/7/1 12/7/1 14/7/1
f 18/8/1 13/8/1 9/8/1
f 18/8/1 17/8/1 16/8/1
f 18/8/1 16/8/1 15/8/1
f 18/8/1 15/8/1 14/8/1
f 18/8/1 14/8/1 13/8/1
f 19/8/1 17/8/1 18/8/1
f 20/8/1 17/8/1 19/8/1
f 21/8/1 17/8/1 20/8/1
f 22/8/1 20/8/1 19/8/1
f 23/8/1 20/8/1 22/8/1
f 24/8/1 17/8/1 21/8/1
f 25/8/1 17/8/1 24/8/1
f 26/8/1 22/8/1 19/8/1
f 27/1/1 23/1/1 22/1/1
f 27/8/1 22/8/1 26/8/1
f 28/1/1 27/1/1 26/1/1
f 29/1/1 23/1/1 27/1/1
f 29/1/1 27/1/1 28/1/1
f 30/1/1 25/1/1 24/1/1
f 31/1/1 25/1/1 30/1/1
f 34/8/1 33/8/1 32/8/1
f 35/8/1 33/8/1 34/8/1
f 38/2/1 37/2/1 36/2/1
f 39/2/1 37/2/1 38/2/1
f 40/7/1 39/7/1 38/7/1
f 41/7/1 39/7/1 40/7/1
f 44/1/1 43/1/1 42/1/1
f 45/1/1 43/1/1 44/1/1
f 49/1/1 46/1/1 45/1/1
f 50/1/1 46/1/1 49/1/1
f 51/1/1 46/1/1 50/1/1
f 52/1/1 46/1/1 51/1/1
f 53/1/1 48/1/1 47/1/1
f 54/1/1 48/1/1 53/1/1
f 57/8/1 56/8/1 55/8/1
f 58/8/1 56/8/1 57/8/1
f 59/9/1 58/9/1 57/9/1
f 60/9/1 58/9/1 59/9/1
f 63/1/1 62/1/1 61/1/1
f 64/1/1 62/1/1 63/1/1
f 67/8/1 66/8/1 65/8/1
f 68/8/1 66/8/1 67/8/1
f 71/8/1 70/8/1 69/8/1
f 72/8/1 70/8/1 71/8/1
f 75/8/1 74/8/1 73/8/1
f 76/8/1 74/8/1 75/8/1
f 79/8/1 78/8/1 77/8/1
f 80/8/1 78/8/1 79/8/1
f 81/8/2 82/8/2 83/8/2
f 83/8/2 82/8/2 84/8/2
f 85/8/2 86/8/2 87/8/2
f 87/8/2 86/8/2 88/8/2
f 89/8/2 90/8/2 91/8/2
f 91/8/2 90/8/2 92/8/2
f 93/8/2 94/8/2 95/8/2
f 95/8/2 94/8/2 96/8/2
f 97/8/2 98/8/2 99/8/2
f 99/8/2 98/8/2 100/8/2
f 99/9/2 100/9/2 101/9/2
f 101/9/2 100/9/2 102/9/2
f 103/1/2 104/1/2 105/1/2
f 105/1/2 104/1/2 106/1/2
f 107/2/2 108/2/2 109/2/2
f 109/2/2 108/2/2 110/2/2
f 109/7/2 110/7/2 111/7/2
f 111/7/2 110/7/2 112/7/2
f 113/1/2 114/1/2 115/1/2
f 115/1/2 114/1/2 116/1/2
f 116/1/2 117/1/2 120/1/2
f 120/1/2 117/1/2 121/1/2
f 121/1/2 117/1/2 122/1/2
f 122/1/2 117/1/2 123/1/2
f 118/1/2 119/1/2 124/1/2
f 124/1/2 119/1/2 125/1/2
f 126/8/2 127/8/2 130/8/2
f 128/7/2 129/7/2 131/7/2
f 131/7/2 129/7/2 132/7/2
f 126/8/2 130/8/2 135/8/2
f 133/8/2 134/8/2 135/8/2
f 132/8/2 133/8/2 135/8/2
f 131/8/2 132/8/2 135/8/2
f 130/8/2 131/8/2 135/8/2
f 135/8/2 134/8/2 136/8/2
f 136/8/2 134/8/2 137/8/2
f 137/8/2 134/8/2 138/8/2
f 136/8/2 137/8/2 139/8/2
f 139/8/2 137/8/2 140/8/2
f 138/8/2 134/8/2 141/8/2
f 141/8/2 134/8/2 142/8/2
f 136/8/2 139/8/2 143/8/2
f 139/1/2 140/1/2 144/1/2
f 143/8/2 139/8/2 144/8/2
f 143/1/2 144/1/2 145/1/2
f 144/1/2 140/1/2 146/1/2
f 145/1/2 144/1/2 146/1/2
f 141/1/2 142/1/2 147/1/2
f 147/1/2 142/1/2 148/1/2
f 149/8/2 150/8/2 151/8/2
f 151/8/2 150/8/2 152/8/2
f 153/7/2 154/7/2 155/7/2
f 155/7/2 154/7/2 156/7/2
f 157/8/2 158/8/2 159/8/2
f 159/8/2 158/8/2 160/8/2
f 163/1/3 162/1/3 161/1/3
f 164/1/3 162/1/3 163/1/3
f 167/1/3 166/1/3 165/1/3
f 168/1/3 166/1/3 167/1/3
f 171/1/3 170/1/3 169/1/3
f 172/1/3 170/1/3 171/1/3
f 175/8/3 174/8/3 173/8/3
f 176/8/3 174/8/3 175/8/3
f 177/8/3 174/8/3 176/8/3
f 178/8/3 174/8/3 177/8/3
f 179/8/3 174/8/3 178/8/3
f 183/8/3 179/8/3 178/8/3
f 183/8/3 180/8/3 179/8/3
f 184/9/3 181/9/3 180/9/3
f 185/9/3 181/9/3 184/9/3
f 186/8/3 183/8/3 182/8/3
f 187/8/3 180/8/3 183/8/3
f 187/8/3 183/8/3 186/8/3
f 188/9/3 184/9/3 180/9/3
f 188/7/3 185/7/3 184/7/3
f 189/9/3 181/9/3 185/9/3
f 189/7/3 185/7/3 188/7/3
f 191/8/3 180/8/3 187/8/3
f 192/8/3 180/8/3 191/8/3
f 193/9/3 188/9/3 180/9/3
f 193/8/3 180/8/3 192/8/3
f 193/9/3 189/9/3 188/9/3
f 194/9/3 181/9/3 189/9/3
f 194/9/3 189/9/3 193/9/3
f 196/8/3 192/8/3 191/8/3
f 196/8/3 191/8/3 190/8/3
f 197/8/3 196/8/3 195/8/3
f 198/8/3 192/8/3 196/8/3
f 198/8/3 196/8/3 197/8/3
f 202/8/3 200/8/3 199/8/3
f 202/1/3 201/1/3 200/1/3
f 203/1/3 201/1/3 202/1/3
f 205/8/3 202/8/3 199/8/3
f 206/8/3 202/8/3 205/8/3
f 207/8/3 202/8/3 206/8/3
f 210/8/3 202/8/3 207/8/3
f 211/8/3 209/8/3 208/8/3
f 211/8/3 210/8/3 209/8/3
f 211/8/3 202/8/3 210/8/3
f 212/1/3 204/1/3 203/1/3
f 213/1/3 204/1/3 212/1/3
f 214/8/3 211/8/3 208/8/3
f 215/1/3 212/1/3 211/1/3
f 215/8/3 211/8/3 214/8/3
f 216/1/3 212/1/3 215/1/3
f 221/7/3 218/7/3 217/7/3
f 224/2/3 220/2/3 219/2/3
f 224/7/3 221/7/3 220/7/3
f 225/7/3 221/7/3 224/7/3
f 226/7/3 221/7/3 225/7/3
f 227/7/3 218/7/3 221/7/3
f 227/7/3 221/7/3 226/7/3
f 228/2/3 224/2/3 219/2/3
f 228/2/3 225/2/3 224/2/3
f 229/10/3 226/10/3 225/10/3
f 229/2/3 225/2/3 228/2/3
f 230/5/3 227/5/3 226/5/3
f 230/10/3 226/10/3 229/10/3
f 231/5/3 227/5/3 230/5/3
f 232/2/3 228/2/3 219/2/3
f 233/7/3 229/7/3 228/7/3
f 233/2/3 228/2/3 232/2/3
f 233/7/3 230/7/3 229/7/3
f 233/7/3 231/7/3 230/7/3
f 234/7/3 231/7/3 233/7/3
f 235/1/3 223/1/3 222/1/3
f 236/1/3 223/1/3 235/1/3
f 237/7/3 231/7/3 234/7/3
f 238/7/3 231/7/3 237/7/3
f 243/7/3 240/7/3 239/7/3
f 244/7/3 240/7/3 243/7/3
f 245/8/3 242/8/3 241/8/3
f 246/8/3 242/8/3 245/8/3
f 247/8/3 242/8/3 246/8/3
f 248/8/3 242/8/3 247/8/3
f 250/8/3 249/8/3 248/8/3
f 250/8/3 248/8/3 247/8/3
f 251/8/3 249/8/3 250/8/3
f 252/8/3 249/8/3 251/8/3
f 260/8/3 254/8/3 253/8/3
f 260/8/3 255/8/3 254/8/3
f 261/8/3 255/8/3 260/8/3
f 262/8/3 255/8/3 261/8/3
f 263/7/3 257/7/3 256/7/3
f 264/7/3 257/7/3 263/7/3
f 265/8/3 259/8/3 258/8/3
f 265/8/3 260/8/3 259/8/3
f 265/8/3 261/8/3 260/8/3
f 266/8/3 261/8/3 265/8/3
f 267/8/4 268/8/4 269/8/4
f 269/8/4 268/8/4 270/8/4
f 270/8/4 268/8/4 271/8/4
f 271/8/4 268/8/4 272/8/4
f 273/8/4 274/8/4 275/8/4
f 275/8/4 274/8/4 276/8/4
f 277/8/4 278/8/4 280/8/4
f 279/8/4 280/8/4 281/8/4
f 280/8/4 278/8/4 282/8/4
f 281/8/4 280/8/4 282/8/4
f 283/8/4 284/8/4 285/8/4
f 285/8/4 284/8/4 286/8/4
f 286/8/4 284/8/4 287/8/4
f 287/8/4 284/8/4 288/8/4
f 288/8/4 289/8/4 290/8/4
f 287/8/4 288/8/4 290/8/4
f 290/8/4 289/8/4 291/8/4
f 291/8/4 289/8/4 292/8/4
f 293/8/4 294/8/4 298/8/4
f 294/8/4 295/8/4 298/8/4
f 298/8/4 295/8/4 299/8/4
f 299/8/4 295/8/4 300/8/4
f 296/8/4 297/8/4 301/8/4
f 297/8/4 298/8/4 301/8/4
f 298/8/4 299/8/4 301/8/4
f 301/8/4 299/8/4 302/8/4
f 303/7/4 304/7/4 305/7/4
f 303/7/4 305/7/4 308/7/4
f 306/2/4 307/2/4 309/2/4
f 307/7/4 308/7/4 310/7/4
f 309/2/4 307/2/4 310/2/4
f 308/7/4 305/7/4 311/7/4
f 310/7/4 308/7/4 311/7/4
f 311/7/4 305/7/4 312/7/4
f 311/7/4 312/7/4 313/7/4
f 313/7/4 312/7/4 314/7/4
f 316/1/4 317/1/4 318/1/4
f 316/1/4 318/1/4 320/1/4
f 318/1/4 319/1/4 320/1/4
f 320/1/4 319/1/4 321/1/4
f 316/1/4 320/1/4 322/1/4
f 320/8/4 321/8/4 322/8/4
f 321/1/4 319/1/4 323/1/4
f 322/8/4 321/8/4 323/8/4
f 322/1/4 323/1/4 324/1/4
f 323/1/4 319/1/4 324/1/4
f 324/1/4 319/1/4 325/1/4
f 315/8/4 316/8/4 326/8/4
f 316/1/4 322/1/4 327/1/4
f 326/8/4 316/8/4 327/8/4
f 322/1/4 324/1/4 327/1/4
f 327/1/4 324/1/4 328/1/4
f 331/2/5 330/2/5 329/2/5
f 332/2/5 330/2/5 331/2/5
f 339/8/5 334/8/5 333/8/5
f 340/8/5 334/8/5 339/8/5
f 341/8/5 336/8/5 335/8/5
f 342/8/5 336/8/5 341/8/5
f 343/8/5 338/8/5 337/8/5
f 344/8/5 338/8/5 343/8/5
f 349/8/5 346/8/5 345/8/5
f 350/8/5 346/8/5 349/8/5
f 351/8/5 348/8/5 347/8/5
f 352/8/5 348/8/5 351/8/5
f 358/7/5 354/7/5 353/7/5
f 359/7/5 356/7/5 355/7/5
f 361/7/5 358/7/5 357/7/5
f 362/7/5 354/7/5 358/7/5
f 362/7/5 358/7/5 361/7/5
f 363/7/5 360/7/5 359/7/5
f 363/7/5 359/7/5 355/7/5
f 364/7/5 360/7/5 363/7/5
f 370/8/5 366/8/5 365/8/5
f 371/8/5 366/8/5 370/8/5
f 372/8/5 368/8/5 367/8/5
f 373/8/5 368/8/5 372/8/5
f 375/8/5 371/8/5 370/8/5
f 375/8/5 374/8/5 373/8/5
f 375/8/5 373/8/5 372/8/5
f 375/8/5 372/8/5 371/8/5
f 375/8/5 370/8/5 369/8/5
f 376/8/5 374/8/5 375/8/5
f 377/8/5 374/8/5 376/8/5
f 378/8/5 374/8/5 377/8/5
f 381/8/5 380/8/5 379/8/5
f 382/8/5 380/8/5 381/8/5
f 387/8/5 384/8/5 383/8/5
f 388/8/5 384/8/5 387/8/5
f 389/8/5 386/8/5 385/8/5
f 390/8/5 386/8/5 389/8/5
f 394/1/5 392/1/5 391/1/5
f 395/1/5 392/1/5 394/1/5
f 397/1/5 394/1/5 393/1/5
f 397/1/5 396/1/5 395/1/5
f 397/1/5 395/1/5 394/1/5
f 398/1/5 396/1/5 397/1/5
f 399/7/6 400/7/6 403/7/6
f 403/7/6 400/7/6 404/7/6
f 401/7/6 402/7/6 405/7/6
f 405/7/6 402/7/6 406/7/6
f 407/8/6 408/8/6 411/8/6
f 411/8/6 408/8/6 412/8/6
f 409/8/6 410/8/6 413/8/6
f 413/8/6 410/8/6 414/8/6
f 415/9/6 416/9/6 417/9/6
f 417/9/6 416/9/6 418/9/6
f 419/1/6 420/1/6 422/1/6
f 422/1/6 420/1/6 423/1/6
f 421/1/6 422/1/6 426/1/6
f 423/1/6 424/1/6 426/1/6
f 422/1/6 423/1/6 426/1/6
f 426/1/6 424/1/6 427/1/6
f 425/1/6 426/1/6 429/1/6
f 429/1/6 426/1/6 430/1/6
f 427/1/6 428/1/6 431/1/6
f 431/1/6 428/1/6 432/1/6
f 433/1/6 434/1/6 437/1/6
f 437/1/6 434/1/6 438/1/6
f 435/1/6 436/1/6 439/1/6
f 439/1/6 436/1/6 440/1/6
f 441/1/6 442/1/6 443/1/6
f 443/1/6 442/1/6 444/1/6
f 445/1/6 446/1/6 449/1/6
f 449/1/6 446/1/6 450/1/6
f 447/8/6 448/8/6 453/8/6
f 453/8/6 448/8/6 454/8/6
f 449/1/6 450/1/6 455/1/6
f 455/1/6 450/1/6 456/1/6
f 451/8/6 452/8/6 457/8/6
f 457/8/6 452/8/6 458/8/6
f 455/1/6 456/1/6 459/1/6
f 459/1/6 456/1/6 460/1/6
f 461/8/6 462/8/6 465/8/6
f 465/8/6 462/8/6 466/8/6
f 463/8/6 464/8/6 467/8/6
f 467/8/6 464/8/6 468/8/6
